<?xml version="1.0" encoding="UTF-8"?>
<svg xmlns="http://www.w3.org/2000/svg" xmlns:xlink="http://www.w3.org/1999/xlink" viewBox="0 0 750 500">
  <defs>
    <style>
      .cls-1 {
        fill: url(#linear-gradient-2);
      }

      .cls-2 {
        fill: #92ce7c;
      }

      .cls-3 {
        fill: #5b8e85;
      }

      .cls-4 {
        fill: #fff;
      }

      .cls-5 {
        fill: #6b6e70;
      }

      .cls-6 {
        fill: #33394d;
      }

      .cls-7 {
        fill: #db5f66;
      }

      .cls-8 {
        fill: #e7b5a3;
      }

      .cls-9 {
        fill: #181711;
      }

      .cls-10 {
        fill: #a9adb1;
      }

      .cls-11 {
        fill: #eec0b1;
      }

      .cls-12 {
        fill: #bac7df;
      }

      .cls-13 {
        isolation: isolate;
      }

      .cls-14 {
        fill: #dfe4ff;
      }

      .cls-15 {
        fill: #74aa85;
      }

      .cls-16 {
        stroke: #33394d;
        stroke-miterlimit: 10;
      }

      .cls-16, .cls-17, .cls-18 {
        fill: none;
      }

      .cls-19 {
        fill: #47506b;
      }

      .cls-20 {
        fill: #7a4333;
      }

      .cls-21 {
        fill: #ecb9a7;
      }

      .cls-22 {
        fill: #d8a08e;
      }

      .cls-23 {
        clip-path: url(#clippath);
      }

      .cls-24 {
        fill: #e1e3ef;
      }

      .cls-25 {
        fill: #5a8e7b;
      }

      .cls-26 {
        fill: url(#linear-gradient);
      }

      .cls-27 {
        fill: #8691d7;
      }

      .cls-28 {
        fill: #6b2f21;
      }

      .cls-29 {
        mix-blend-mode: darken;
      }

      .cls-18 {
        stroke: #302d32;
        stroke-linecap: round;
        stroke-linejoin: round;
        stroke-width: 2.13px;
      }
    </style>
    <clipPath id="clippath">
      <rect class="cls-17" x="109.59" y="247.9" width="549.27" height="207.47"/>
    </clipPath>
    <linearGradient id="linear-gradient" x1="-322.5" y1="226.33" x2="-375.36" y2="336.98" gradientTransform="translate(283.59 -39.24) rotate(-44.63)" gradientUnits="userSpaceOnUse">
      <stop offset="0" stop-color="#8bc47c"/>
      <stop offset=".88" stop-color="#679653"/>
    </linearGradient>
    <linearGradient id="linear-gradient-2" x1="-589.33" y1="-28.73" x2="-642.19" y2="81.92" gradientTransform="translate(96.39 -39.24) rotate(-135.37) scale(1 -1)" xlink:href="#linear-gradient"/>
  </defs>
  <g class="cls-13">
    <g id="Layer_2" data-name="Layer 2">
      <g id="BACKGROUND">
        <g>
          <rect class="cls-4" width="750" height="500"/>
          <path class="cls-24" d="M245.29,221.9c18.66-17.2,29.01-42.09,27.99-65.16-1.16-26.4-16.27-49.93-38.33-64.18-39.33-25.4-113.84-28.98-145.5,20.41-14.05,21.91-15.91,48.69-7.49,70.62s26.38,39.11,48,50c31.49,15.86,74.87,17.7,106.74-4.75,3.03-2.13,5.89-4.46,8.59-6.94Z"/>
          <path class="cls-24" d="M581.87,454.87c86.2-54.47,135.39-208.27,51.9-282.65-34.32-30.57-85.78-35.68-130.92-26.13-41.79,8.84-70.89,33.97-102.82,58.58-36.22,27.91-81.24,66.22-128.05,69.41-49.57,3.37-107.99,5.77-139.7,48.47-34.01,45.81-18.31,90.01,15.03,132.33h434.56Z"/>
          <g class="cls-23">
            <g>
              <g>
                <g>
                  <path class="cls-3" d="M205.83,475.3s-19.97-50.2-96.24-41.53c0,0,74.87,71.07,96.24,41.53Z"/>
                  <g class="cls-29">
                    <path class="cls-25" d="M129.48,440.54c38.87,7.11,72.14,30.58,102.48,54.72,4.34,3.52,8.67,7.03,12.95,10.62l-13.26-10.24c-30.76-23.52-63.67-46.84-102.17-55.1h0Z"/>
                  </g>
                </g>
                <g>
                  <path class="cls-26" d="M262.54,474.68s-53.18-21.17-57.4-126.5c0,0,83.12,93.67,57.4,126.5Z"/>
                  <path class="cls-3" d="M262.54,474.68s-53.18-21.17-57.4-126.5c0,0,83.12,93.67,57.4,126.5Z"/>
                  <g class="cls-29">
                    <path class="cls-25" d="M215.21,374.54c13.72,48.73,41.7,91.99,71.43,132.4,4.24,5.83,8.52,11.63,12.83,17.42-4.43-5.69-8.84-11.39-13.22-17.12-30.33-40.01-58.48-83.54-71.04-132.7h0Z"/>
                  </g>
                </g>
                <g>
                  <path class="cls-15" d="M237.27,471.04s-65.7,22.41-101.52-91.12c0,0,120.58,32.37,101.52,91.12Z"/>
                  <g class="cls-29">
                    <path class="cls-25" d="M154.78,400.54c23.2,32.79,65.15,62.77,102.14,78.11-5.1-1.85-10.11-3.98-15.03-6.28-32.84-16.13-66.76-41.08-87.11-71.83h0Z"/>
                  </g>
                </g>
                <g>
                  <path class="cls-2" d="M259.07,490.45s10.02-78.58-76.7-112.27c0,0,17.96,110.24,76.7,112.27Z"/>
                  <g class="cls-29">
                    <path class="cls-25" d="M199.31,399.23c32.51,33.06,55.96,74.78,69.45,119.01-1.92-5.46-3.84-10.93-5.93-16.32-14.77-37.64-35.99-72.99-63.52-102.69h0Z"/>
                  </g>
                </g>
              </g>
              <g>
                <g>
                  <path class="cls-3" d="M547.2,474.88s19.97-50.2,96.24-41.53c0,0-74.87,71.07-96.24,41.53Z"/>
                  <g class="cls-29">
                    <path class="cls-25" d="M623.56,440.12c-38.51,8.26-71.41,31.58-102.17,55.1,0,0-13.26,10.24-13.26,10.24,4.28-3.59,8.62-7.1,12.95-10.62,30.34-24.14,63.61-47.61,102.48-54.72h0Z"/>
                  </g>
                </g>
                <g>
                  <path class="cls-1" d="M486.52,480.6s53.18-21.17,57.4-126.5c0,0-83.12,93.67-57.4,126.5Z"/>
                  <path class="cls-3" d="M486.52,480.6s53.18-21.17,57.4-126.5c0,0-83.12,93.67-57.4,126.5Z"/>
                  <g class="cls-29">
                    <path class="cls-25" d="M533.86,380.46c-12.56,49.16-40.71,92.68-71.04,132.7-4.38,5.73-8.79,11.44-13.22,17.12,4.3-5.79,8.58-11.59,12.83-17.42,29.73-40.41,57.71-83.68,71.43-132.4h0Z"/>
                  </g>
                </g>
                <g>
                  <path class="cls-15" d="M511.8,476.96s65.7,22.41,101.52-91.12c0,0-120.58,32.37-101.52,91.12Z"/>
                  <g class="cls-29">
                    <path class="cls-25" d="M594.29,406.46c-20.36,30.76-54.24,55.68-87.11,71.83-4.92,2.3-9.93,4.43-15.03,6.28,36.98-15.35,78.92-45.3,102.14-78.11h0Z"/>
                  </g>
                </g>
                <g>
                  <path class="cls-2" d="M489.99,496.37s-10.02-78.58,76.7-112.27c0,0-17.96,110.24-76.7,112.27Z"/>
                  <g class="cls-29">
                    <path class="cls-25" d="M549.76,405.15c-27.53,29.7-48.75,65.05-63.52,102.69-2.09,5.4-4.01,10.86-5.93,16.32,13.5-44.24,36.95-85.95,69.45-119.01h0Z"/>
                  </g>
                </g>
              </g>
            </g>
          </g>
        </g>
      </g>
      <g id="OBJECTS">
        <g>
          <rect class="cls-27" x="174.32" y="112.32" width="408.16" height="275.36" rx="12.87" ry="12.87" transform="translate(628.4 -128.4) rotate(90)"/>
          <path class="cls-14" d="M500.17,61.69h-66.44c-3.13,0-6.11,1.39-8.12,3.79l-5.5,6.57c-2.01,2.4-4.99,3.79-8.12,3.79h-66.59c-2.94,0-5.75-1.22-7.75-3.38l-6.89-7.4c-2-2.15-4.81-3.38-7.75-3.38h-66.37c-2.69,0-4.86,2.18-4.86,4.86V423.24c0,2.69,2.18,4.86,4.86,4.86h243.54c2.69,0,4.86-2.18,4.86-4.86V66.55c0-2.69-2.18-4.86-4.86-4.86Z"/>
        </g>
        <path class="cls-14" d="M572.34,241.12h-237.2c-9.44,0-17.09,7.65-17.09,17.09v89.74c0,9.44,7.65,17.09,17.09,17.09h99.7l15.98,15.93,15.98-15.93h105.55c9.44,0,17.09-7.65,17.09-17.09v-89.74c0-9.44-7.65-17.09-17.09-17.09Z"/>
        <g>
          <path class="cls-4" d="M572.34,236.12h-237.2c-9.44,0-17.09,7.65-17.09,17.09v89.74c0,9.44,7.65,17.09,17.09,17.09h99.7l15.98,15.93,15.98-15.93h105.55c9.44,0,17.09-7.65,17.09-17.09v-89.74c0-9.44-7.65-17.09-17.09-17.09Z"/>
          <g>
            <rect class="cls-14" x="336.52" y="295.95" width="83.76" height="5.14" rx="1.96" ry="1.96"/>
            <rect class="cls-14" x="336.52" y="314.91" width="83.76" height="5.14" rx="1.96" ry="1.96"/>
            <rect class="cls-14" x="336.52" y="277.2" width="83.76" height="5.14" rx="1.96" ry="1.96"/>
            <rect class="cls-14" x="336.52" y="258.44" width="83.76" height="5.14" rx="1.96" ry="1.96"/>
            <rect class="cls-14" x="336.52" y="333.88" width="63.54" height="5.14" rx="1.96" ry="1.96"/>
          </g>
          <g>
            <path class="cls-11" d="M444.19,299.66c-1.2-.48-6.57-2.1-7.12-2.37-1.52-.78-.17-5.16-3.86-7.71-2.89-2-4.49-4.74-5.53-5.42-2.53-1.64-4.03-1.11-3.82,.34,.21,1.46,3.4,6.44,3.4,6.44,0,0-2.9-.15-6.44,.31-3.54,.46-13.64-1.32-14.81-.78-1.17,.54-2.05,2.26-2.05,2.26,0,0-4.22-.53-5.35,.8-1.12,1.33-.12,3.11,2.54,3.39,0,0-.88,2.03,.91,2.73,1.79,.69,3,.96,3,.96,0,0-1.53,.88-.49,1.88,1.05,1.01,6.5,2.6,11.91,2.39,4.03-.16,3.56-.06,6.19,.17,.78,.07,4.8-.21,7.45,.22,4.13,.68,7.51,2.2,9.96,2.63,1.52-2.73,3.19-5.43,4.11-8.25Z"/>
            <path class="cls-19" d="M519.54,280.12c-.08-1.23-.27-7.19-.27-7.19,0,0-6,1.32-13.46,5.45-5.44,3.01-14.55,11.04-18.53,14.96-3.98,3.92-15.32,13.2-15.32,13.2l-33.74-9.74s.37,2.05-.66,5.19c-1.18,3.62-2.72,5.48-2.72,5.48,0,0,37.58,19.83,41.99,17.59,4.41-2.23,24.75-12.11,34.62-22.19,9.87-10.08,8.1-22.75,8.1-22.75Z"/>
            <path class="cls-28" d="M531.26,283.37c9.3,.46,13.5,1.4,18.69-8.78,5.97-11.72-11.18-53.28-11.18-53.28l2.56-10.58c-1.59-1.01-9.03,2.01-9.03,2.01-2.77-2.09-10-1.1-13.36,1.67-10.47,8.64-9.09,24.98,.44,28.57,1.03,.39,7.04,10.16,3.63,20.87-5.39,16.91-3.6,22.06,8.25,19.52Z"/>
            <path class="cls-28" d="M544.75,293.59c12.09,4.26,41.76,5.47,36.59-18.65-2.15-10.05-10.06-17.99-16.47-25.31-2.12-2.43-4.14-9.18-4.15-11.34-.03-7.44-.86-15.12-3.82-20.12-5.25-8.87-15.56-7.44-15.56-7.44l-11.69,7.3s-.77,12.69,1.64,28.8c1.27,8.51-2.86,41.01,13.46,46.76Z"/>
            <path class="cls-22" d="M515,300.51c-1.89-9.31-2.35-14.97-3.5-24.37,2.15-1.49,12.27-4.78,14.33-6.8,5.6-5.46,4.47-19.21,4.47-19.21l14.79-7.15s.01,20.94,2.43,24.54c3.66,5.45,10.22,6.5,10.22,6.5,0,0,2.81,12.72-6.7,27.36-6.38,9.82-22.24,15.74-31.99,18.57-1.29-6.49-2.72-12.94-4.05-19.44Z"/>
            <path class="cls-11" d="M520.05,220c-.75,3.52-2.52,7.72-3.09,14.39-.28,3.34,.07,10.41,.93,14.41,.86,4,5.36,15.73,11.64,15.05,3.34-.36,7.47-3.2,9.39-4.58,5.36-3.83,7.4-5.36,8.76-9.23,1.36-3.87,1.4-14.31,.34-21.83-1.06-7.53-5.67-10.74-11.12-12.01-5.45-1.27-16.86,3.8-16.86,3.8Z"/>
            <path class="cls-11" d="M543.02,240.33s4.26-4.27,6.92-3.48c2.65,.8,2.65,4.83,.46,8.04-2.19,3.21-9.83,4.73-9.83,4.73l2.46-9.29Z"/>
            <path class="cls-28" d="M538.92,220.7c-3.7,.17-8.71,3.04-15.34,6.38-6.63,3.34-9.66,3.74-9.66,3.74l3.97-10.67s7.09-6.49,13.13-5.67c6.04,.82,7.9,6.23,7.9,6.23Z"/>
            <path class="cls-28" d="M534.59,219.75s-6.35,9.47-15.21,11.07c0,0,12.48-.39,17.72-7.15l-2.51-3.92Z"/>
            <path class="cls-28" d="M546.27,235.42c2.8,1.45,3.93,3.55,6.83,4.75,1.5-7.18,1.85-15.99-10-23.94-7.71-5.17-11.85,2.71-11.85,2.71,7.04,.16,5.83,11.74,15.01,16.48Z"/>
            <g>
              <path class="cls-19" d="M503.54,315.9c.31,1.35,.72,2.64,1.15,4.02,.39,1.23,1.14,3.7,1.84,7,1.78,8.33,3.3,21.99-1.84,34.56h59.55c-1.21-8.4-2.26-23.82-2.46-29.81-.17-4.81,3.43-12.91,4.5-20.27,2.43-16.66,0-34.2,0-34.2l-18.19-9.67s-4.27,5.39-14.29,5.39c-7.4,0-7.96-3.57-7.96-3.57l-15.43,7.03s-.75,10.78-3.84,19.15c-3.99,10.79-4.06,15.87-3.02,20.38Z"/>
              <path class="cls-6" d="M524.24,270.42c-.14-1.44,1.28-3.87,2.08-5.39,.8-1.52,1.67,0,4.94,0s13.15-1.64,14.5-2.6c1.35-.96,2.19-1.34,3,1.45,.81,2.79,3.55,2.38,1.7,4.91-1.85,2.53-11.16,6.07-17.65,5.6-6.49-.47-8.42-2.35-8.57-3.97Z"/>
              <path class="cls-16" d="M504.69,319.92c-1.89-6.02-3.31-10.4,1.87-24.41"/>
            </g>
            <g>
              <path class="cls-11" d="M536.36,343.31l-3.88-2.7s-7.35-.47-8.22-.14c-.86,.32-5.58,2.62-6.88,3.6-1.3,.97-2.7,1.73-2.16,2.27s3.02,.43,4.53-.43c1.51-.86,2.5-1.57,2.5-1.57,0,0,2.01-.5,2.89-.77,.95-.29,7.98,.72,7.98,.72l3.24-.97Z"/>
              <path class="cls-11" d="M546.54,347.08s-2.59,.76-4.85,2.37c-2.27,1.62-3.55,2-4.64,1.9-1.36-.12-4.35-.46-5.1-.46s-3.25,1.27-3.79,1.8c-.54,.54-2.16,2.16-3.67,2.16s-.65-1.94-.65-1.94c0,0-1.51,1.73-2.8,1.51-1.29-.22-1.29-1.08-1.29-1.08,0,0-1.4,.97-2.27-.22-.86-1.19,2.81-5.91,4.1-7.32,1.29-1.4,9.38-5.09,10.89-5.2,1.51-.11,5.76,.21,7.81,.21h3.24l3.02,6.26Z"/>
              <path class="cls-11" d="M564.78,332.95s-8.48,4.02-11.85,5.27-9.41,2.59-9.41,2.59l2.25,6.4s14.03-.09,19.98-.56c4.95-.39,6.59-1.35,6.59-1.35,0,0,2.41-4.53-.86-8.87-1.79-2.37-6.71-3.49-6.71-3.49Z"/>
            </g>
            <path class="cls-19" d="M566.28,277.2c1.34,.67,6,2.85,9.17,8.28,3.86,6.61,7.65,16.83,10.79,27.85,5.79,20.33,5.36,24.47,3.57,28.64-1.79,4.17-39.34,7.5-39.34,7.5,0,0,3.26-.2-.26-6.58-2.37-4.3-4.45-3.2-4.45-3.2l25.92-11.43s-6.59-11.17-11.47-20.39c-8.83-16.68,6.07-30.68,6.07-30.68Z"/>
            <line class="cls-16" x1="545.76" y1="339.69" x2="571.68" y2="328.26"/>
            <path class="cls-16" d="M555.43,298.41l16.24,29.86s4.71-.47,7.89,5.4"/>
            <g>
              <ellipse class="cls-9" cx="549.08" cy="237.56" rx="7.18" ry="10.35"/>
              <path class="cls-9" d="M549.95,246.55c-1.75,3.76-4.81,7.84-11.03,9.81-2.57,.81-6.11,1.11-9.63,1.11,0,0-.08,1.11-2.16,1.06-2.41-.05-2.9-.91-2.89-1.97,.02-1.59,1.44-1.81,2.34-1.86,1.21-.07,2.5,.38,2.58,1.25,0,0,5.05,.35,8.9-.76,4.2-1.22,9-5.15,10.72-9.54l1.17,.91Z"/>
              <ellipse class="cls-12" cx="550.47" cy="237.56" rx="7.18" ry="10.35"/>
              <path class="cls-4" d="M548.05,237.56c0,2.74,1.54,4.96,3.44,4.96s3.44-2.22,3.44-4.96-1.54-4.96-3.44-4.96-3.44,2.22-3.44,4.96Z"/>
              <path class="cls-9" d="M550.7,230.04l-2.49,1.33-.75-.4s.13-8.8-5.12-14.05c-5.25-5.25-10.04-4.17-10.04-4.17,0,0-.1-.41,.77-.67,1.08-.32,3.31-.49,5.1-.41,3.24,.15,13.3,1.86,12.53,18.38Z"/>
              <path class="cls-12" d="M551.45,230.44l-3.24,.93s.15-9.88-5.1-15.13c-5.25-5.25-10.04-4.17-10.04-4.17,0,0,2.63-1.24,5.87-1.08,3.24,.15,13.28,2.93,12.51,19.46Z"/>
            </g>
          </g>
        </g>
        <rect class="cls-4" x="264.85" y="385.84" width="231.06" height="32.5" rx="3.46" ry="3.46"/>
        <g>
          <g>
            <path class="cls-14" d="M398.83,105.67H161.62c-9.44,0-17.09,7.65-17.09,17.09v89.74c0,9.44,7.65,17.09,17.09,17.09h112.84l15.98,15.93,15.98-15.93h92.41c9.44,0,17.09-7.65,17.09-17.09V122.76c0-9.44-7.65-17.09-17.09-17.09Z"/>
            <path class="cls-4" d="M398.83,100.67H161.62c-9.44,0-17.09,7.65-17.09,17.09v89.74c0,9.44,7.65,17.09,17.09,17.09h112.84l15.98,15.93,15.98-15.93h92.41c9.44,0,17.09-7.65,17.09-17.09V117.76c0-9.44-7.65-17.09-17.09-17.09Z"/>
            <g>
              <g>
                <path class="cls-21" d="M301.86,93.47c.1-.97-.94-1.63-1.48-1.84-.54-.21-3.68,6.84-4.34,8.4-.66,1.56-3.6,6.86-3.71,8.63-.12,1.77,.61,8.82,.27,10.41-.19,.87-.94,2.82-2.05,5.15,2.39,1.48,4.7,3.05,6.98,4.66,.65-2.06,1.43-4.51,2.01-6.1,1.15-3.19,3.81-3.48,3.81-6.53,0-3.06,2.09-3.77,1.67-6.41-.22-1.36-1.95-1.92-3.48-2.78-2.39-1.34-3.74-.77-3.74-.77,0,0,1.91-5.92,2.02-7.02,.11-1.1,1.9-4.14,2.06-5.79Z"/>
                <g>
                  <path class="cls-21" d="M306.24,106.86c.57,1.28,2.04,5.16,1.41,5.78-.63,.62-1.62,0-1.62,0,0,0,.24,1.86-.54,2.13-.78,.27-1.78-.76-1.78-.76,0,0-.25,1.81-1.23,1.62-.98-.19-1.31-1.94-1.64-3.02-.33-1.08-1.83-4.81-1.83-4.81l.79-2.22c.77-.03,1.59-.05,2.26-.04,1.82,.03,3.62,.05,4.19,1.32Z"/>
                  <path class="cls-21" d="M297.74,115.98c.7,1.36,2.96-2.93,2.36-4.46-.6-1.53-.06-3.41,.49-4.3,.54-.9,1.72-2.33,2.54-3.26s.92-2.5,.55-3.66c-.37-1.16-1.76,.14-3.64,1.85-1.88,1.71-3.99,3.51-4.8,4.62-.81,1.12-1.06,3-1.06,3,0,0,3,5.12,3.55,6.21Z"/>
                </g>
              </g>
              <path class="cls-5" d="M231.57,132.54c.72-3.24,3.61-9.54,3.61-9.54l9.29,2.64c6.57,4.39,16.09,14,26.06,23.86l21.06-28.5s3.13,4.31,9.05,3.92c0,0-2.85,11.7-10.75,28.73-5.73,12.37-11.48,21.43-15.68,22.22-5.52,1.04-12.33-4.21-19.71-8.52-7.29-4.26-14.83-7.89-20.26-18.07-5.43-10.18-4.42-8.89-2.68-16.76Z"/>
              <path class="cls-8" d="M208.22,95.04s-2.61,19.86-4.03,21.12c-1.41,1.27-2.65,2.49-5.67,4.38,0,0,12.36,20.6,25.04,22.37,24.24,3.39,11.63-19.91,11.63-19.91,0,0-7.26-4.79-9.6-7.66-1.39-1.71-4.36-11.82-4.36-11.82l-13-8.48Z"/>
              <path class="cls-4" d="M228.09,117.94s2.05,12.03-9.55,11.81c-13.69-.26-18.58-10.6-18.58-10.6l-8.64,5.7,16.66,25.02,30.56,.53-1.13-27.95-9.32-4.5Z"/>
              <path class="cls-10" d="M179.06,224.59h66.91c-.06-10.68,0-22.8,.48-26.84,.93-7.76-1.96-72.11-1.96-72.11l-12.79-5.83s1.79,13.91-10.85,17.51c-19.14-2.3-23.91-16.3-23.91-16.3l-16.24,11.03s-3.49,33.04-1.98,60.43c.4,7.26,.43,20.26,.34,32.11Z"/>
              <g>
                <path class="cls-21" d="M225.78,72.74c2.16,1.26,5.89,3.94,6.14,6.04,.25,2.09,1.28,8.21,1.14,11.83-.14,3.62,.14,12.93-.27,17.16-.41,4.23-.97,5.72-1.94,6.52-.98,.8-11.85,.93-14-.03-2.15-.95-11.86-5.98-11.81-15.01,0,0-3.89,2.06-7.41-5.9-.92-2.08,5.78-10.5,6.54-13.01,1.84-6.1,14.07-5,17.36-5.6,3.28-.6,4.27-2,4.27-2Z"/>
                <path class="cls-20" d="M231.92,78.78s-1.33-2.8-3.68-1.49c-2.35,1.31-7.42,2.29-11.33,2.17-3.92-.12-7.74-1.6-7.74-1.6,0,0,.25,5.55-.73,7.1-.98,1.55-3.3,3.46-3.37,5.27-.07,1.81,.16,3.6,.16,3.6,0,0-2.54-3.04-4.47-2.35-1.92,.69-1.77,3.99,.25,5.4,2.02,1.41,4.02,2.37,4.02,2.37l5.09,12.23s-9.82-13.35-12.65-18.41c-3.97-7.11-5.18-15.56-1.35-17.62,0,0-.41-9.01,8.97-11.09,9.38-2.08,26.77,2.46,28.74,6.96,1.58,3.62-1.92,7.46-1.92,7.46Z"/>
                <path class="cls-20" d="M231.39,102.45c-1.41-.53-3.35-.68-6.3-.09-3.39,.68-6.19,2.51-8.42,3.21-2.22,.7-7.24-2.77-8.66-7.52-1.42-4.75-2.38-9.37-2.38-9.37l-1.58,1.73s1.45,8.66,1.83,13.75c.38,5.1,3.46,10.38,9.45,13.11,5.99,2.74,14.48,1,16.06-.73,1.58-1.73,2.04-5.17,1.95-8.22-.04-1.23,.02-3.42-.21-4.44-.11-.48-1.22-1.24-1.75-1.44Z"/>
              </g>
              <g>
                <g>
                  <path class="cls-21" d="M227,205.23l4.48-2.98s8.48-.52,9.48-.16c1,.36,6.44,2.9,7.94,3.97,1.5,1.07,3.12,1.91,2.49,2.5-.62,.6-3.48,.48-5.23-.48-1.74-.95-2.88-1.73-2.88-1.73,0,0-2.32-.55-3.34-.85-1.09-.32-9.21,.79-9.21,.79l-3.73-1.07Z"/>
                  <path class="cls-21" d="M215.25,209.39s2.99,.83,5.6,2.62c2.61,1.79,4.09,2.21,5.35,2.09,1.57-.14,5.02-.5,5.89-.5s3.74,1.4,4.37,1.99c.62,.6,2.49,2.38,4.23,2.38s.75-2.14,.75-2.14c0,0,1.74,1.91,3.24,1.67s1.49-1.19,1.49-1.19c0,0,1.62,1.07,2.61-.24s-3.24-6.53-4.73-8.08c-1.49-1.55-10.82-5.62-12.56-5.74-1.74-.12-6.64,.23-9.01,.23h-3.73l-3.48,6.91Z"/>
                  <path class="cls-21" d="M194.22,193.79s9.78,4.44,13.67,5.82c3.88,1.39,10.85,2.87,10.85,2.87l-2.6,7.07s-16.19-.1-23.05-.62c-5.71-.43-7.61-1.49-7.61-1.49,0,0-2.78-5.01,.99-9.8,2.06-2.62,7.74-3.86,7.74-3.86Z"/>
                </g>
                <path class="cls-5" d="M180.68,132.14c-1.36,1.05-6.12,4.51-8.46,11.14-2.85,8.06-4.79,20.02-5.81,32.67-1.88,23.35-2.07,21.12,0,25.72s44.31,10.35,44.31,10.35c0,0-3.77-.22,.3-7.26,2.74-4.75,5.13-3.53,5.13-3.53l-29.89-12.62s4.89-13.65,8.28-24.77c6.15-20.13-13.86-31.71-13.86-31.71Z"/>
              </g>
            </g>
          </g>
          <g>
            <rect class="cls-14" x="315.05" y="160.5" width="83.76" height="5.14" rx="1.96" ry="1.96" transform="translate(713.86 326.13) rotate(180)"/>
            <rect class="cls-14" x="315.05" y="179.46" width="83.76" height="5.14" rx="1.96" ry="1.96" transform="translate(713.86 364.07) rotate(180)"/>
            <rect class="cls-14" x="315.05" y="141.75" width="83.76" height="5.14" rx="1.96" ry="1.96" transform="translate(713.86 288.63) rotate(180)"/>
            <rect class="cls-14" x="315.05" y="122.99" width="83.76" height="5.14" rx="1.96" ry="1.96" transform="translate(713.86 251.13) rotate(180)"/>
            <rect class="cls-14" x="335.27" y="198.43" width="63.54" height="5.14" rx="1.96" ry="1.96" transform="translate(734.09 402) rotate(180)"/>
          </g>
          <g>
            <g>
              <path class="cls-7" d="M362.12,183.43c-2.81,0-3.58-1.09-3.72-2-.33-2.05-.24-3.96-.15-5.8l.02-.52c.48-10.21,4.16-17.87,8.43-26.75,1.02-2.12,2.07-4.31,3.11-6.61,4.75-10.48,8.21-29.07-2.7-34.37-1.72-.84-3.89-1.3-6.1-1.3-3.66,0-6.73,1.21-8.42,3.31-1.81,2.24-1.79,5.25-1.77,8.44,.02,2.69,.03,5.47-1.07,7.96-2.67,6.02-6.75,6.91-8.94,6.91-3.31,0-6.58-1.96-8.76-5.25-2.89-4.37-3.26-10.19-.98-15.58,4.85-11.45,19.17-16.2,29.96-16.79,.75-.04,1.51-.06,2.27-.06,15.6,0,32.85,9.17,34.1,26.15,.9,12.25-7,20.05-14.64,27.58-1.92,1.89-3.91,3.85-5.69,5.83-5.35,5.94-8.58,12.17-9.6,18.51-.46,2.88-.18,4.76,.09,6.57l.12,.82c.07,.52-.09,1.04-.46,1.46-1.27,1.46-4.95,1.48-5.1,1.48Z"/>
              <path class="cls-4" d="M363.29,96.44c15.81,0,31.54,9.3,32.69,24.84,1.08,14.64-11.26,22.7-19.97,32.36-4.93,5.48-8.76,11.86-9.95,19.23-.57,3.55-.09,5.7,.21,7.82,.1,.74-2.25,1.33-4.15,1.33-1.21,0-2.23-.23-2.32-.81-.34-2.09-.2-4.11-.11-6.03,.58-12.35,6.1-21.1,11.41-32.84,4.41-9.74,9.17-30.14-3.38-36.23-1.92-.93-4.31-1.44-6.72-1.44-3.67,0-7.38,1.18-9.53,3.84-3.77,4.68-.78,11.64-3.03,16.71-1.9,4.28-4.77,6.07-7.64,6.07-6.35,0-12.69-8.8-8.43-18.86,4.18-9.86,16.85-15.27,28.73-15.93,.73-.04,1.46-.06,2.19-.06m0-2.83h0c-.78,0-1.57,.02-2.34,.06-11.19,.61-26.08,5.6-31.18,17.65-2.47,5.82-2.06,12.15,1.1,16.91,2.44,3.68,6.16,5.88,9.94,5.88,4.31,0,8.04-2.83,10.23-7.76,1.23-2.77,1.21-5.71,1.2-8.54-.02-3.05-.04-5.69,1.46-7.54,1.4-1.74,4.14-2.78,7.32-2.78,2,0,3.95,.41,5.48,1.15,10.01,4.86,6.56,22.52,2.03,32.51-1.03,2.28-2.08,4.47-3.1,6.58-4.15,8.64-8.07,16.8-8.56,27.3l-.02,.51c-.09,1.83-.19,3.9,.16,6.1,.16,.96,.97,3.19,5.12,3.19,.74,0,4.54-.09,6.17-1.96,.64-.73,.92-1.65,.79-2.59-.04-.28-.08-.56-.12-.84-.27-1.79-.52-3.47-.09-6.14,.99-6.15,4.02-11.97,9.26-17.78,1.75-1.95,3.72-3.89,5.63-5.77,7.5-7.4,16.01-15.79,15.06-28.7-1.31-17.84-19.28-27.47-35.51-27.47h0Z"/>
            </g>
            <g>
              <path class="cls-7" d="M361.5,208.97c-.7,0-1.42-.06-2.16-.18-1.63-.27-3.16-.85-4.56-1.73-4.02-2.77-5.63-6.6-4.83-11.4,.27-1.64,.93-3.24,1.95-4.74,2.29-3.32,5.33-5,9.02-5,.7,0,1.44,.06,2.19,.19,1.78,.3,3.45,1.03,4.95,2.2,3.68,2.82,5.17,6.55,4.41,11.1-.27,1.65-.93,3.24-1.95,4.74-2.4,3.22-5.42,4.83-9.02,4.83Z"/>
              <path class="cls-4" d="M360.92,187.33c.63,0,1.28,.06,1.96,.17,1.56,.26,3,.9,4.32,1.92,3.25,2.49,4.54,5.73,3.88,9.75-.24,1.45-.82,2.84-1.72,4.18-2.09,2.81-4.71,4.21-7.85,4.21-.62,0-1.26-.05-1.93-.16-1.45-.24-2.8-.75-4.04-1.53-3.49-2.41-4.89-5.73-4.19-9.97,.24-1.45,.82-2.84,1.72-4.18,2.01-2.92,4.63-4.38,7.84-4.38m0-2.83h0c-4.13,0-7.65,1.94-10.18,5.6-1.15,1.69-1.88,3.48-2.19,5.33-.88,5.32,.98,9.73,5.37,12.76l.05,.04,.05,.03c1.56,.97,3.27,1.62,5.08,1.92,.81,.13,1.62,.2,2.39,.2,4.01,0,7.51-1.85,10.12-5.35l.04-.05,.03-.05c1.14-1.67,1.87-3.46,2.18-5.31,.84-5.03-.88-9.34-4.95-12.46-1.68-1.3-3.56-2.13-5.58-2.46-.82-.14-1.64-.21-2.42-.21h0Z"/>
            </g>
          </g>
        </g>
        <line class="cls-18" x1="66.39" y1="454.87" x2="683.61" y2="454.87"/>
      </g>
    </g>
  </g>
</svg>