<?xml version="1.0" encoding="UTF-8"?>
<svg id="Layer_2" data-name="Layer 2" xmlns="http://www.w3.org/2000/svg" viewBox="0 0 1830 1830">
  <defs>
    <style>
      .cls-1, .cls-2 {
        fill: #fff;
      }

      .cls-2 {
        opacity: .4;
      }

      .cls-3 {
        fill: #d3bba3;
      }

      .cls-4 {
        fill: #84524d;
      }

      .cls-5 {
        fill: #8b865c;
      }

      .cls-6 {
        fill: #f7f1eb;
      }

      .cls-7 {
        fill: #e6d0be;
      }

      .cls-8 {
        fill: #efbc73;
      }

      .cls-9 {
        fill: #f2e6dc;
      }

      .cls-10 {
        fill: #d87355;
      }

      .cls-11 {
        fill: #363e44;
      }
    </style>
  </defs>
  <g id="Illustration">
    <g id="Planning">
      <circle class="cls-9" cx="915" cy="915" r="915"/>
      <g>
        <path class="cls-6" d="M1364.05,333.44c-59.9,154.67,10.78,255.11,128.32,300.63,117.54,45.52,237.43,18.88,297.33-135.79,59.9-154.67-80.41-424.32-80.41-424.32,0,0-285.33,104.81-345.23,259.48Z"/>
        <path class="cls-3" d="M1368.31,955.41c-.12,0-.24-.02-.36-.07-.51-.2-.77-.78-.57-1.29L1664.57,186.65c.2-.52,.78-.77,1.29-.57,.51,.2,.77,.78,.57,1.29l-297.2,767.4c-.15,.4-.53,.64-.93,.64Z"/>
        <path class="cls-3" d="M1492.95,639.9l-68.82-248.2c-.15-.53,.16-1.08,.7-1.23,.53-.14,1.08,.16,1.23,.7l65.74,237.09,27.54-376.34c.04-.55,.5-.96,1.07-.92,.55,.04,.96,.52,.92,1.07l-28.38,387.84Z"/>
        <path class="cls-3" d="M1488.02,637.99l240.24-305.79c.34-.43,.97-.51,1.4-.17,.43,.34,.51,.97,.17,1.4l-233.12,296.72,208.28-130.97c.47-.29,1.09-.15,1.38,.31,.29,.47,.15,1.09-.31,1.38l-218.04,137.11Z"/>
      </g>
      <g>
        <path class="cls-1" d="M1541.26,637.22c-70.72,56.06-65.24,122.67-22.64,176.41,42.6,53.75,106.2,74.28,176.92,18.22,70.73-56.06,79.2-221.25,79.2-221.25,0,0-162.76-29.45-233.48,26.61Z"/>
        <path class="cls-3" d="M1372.14,930.75c-.29,0-.59-.13-.78-.38-.34-.43-.27-1.06,.16-1.4l350.91-278.17c.43-.35,1.06-.27,1.4,.16,.34,.43,.27,1.06-.16,1.4l-350.91,278.17c-.18,.15-.4,.22-.62,.22Z"/>
        <path class="cls-3" d="M1516.17,818.95l36.78-137.95c.14-.53,.69-.85,1.22-.71,.53,.14,.85,.69,.71,1.22l-33.81,126.81,115.13-166.82c.31-.46,.93-.57,1.39-.25,.45,.31,.57,.94,.25,1.39l-121.68,176.31Z"/>
        <path class="cls-3" d="M1512.89,814.81l199.43-78.23c.51-.2,1.09,.05,1.3,.57,.2,.51-.05,1.09-.57,1.3l-188.7,74.02,131.19-3.98c.55,.01,1.01,.42,1.03,.97,.02,.55-.42,1.01-.97,1.03l-142.71,4.33Z"/>
      </g>
      <g>
        <rect class="cls-7" x="230.81" y="147.75" width="677.07" height="1277.34"/>
        <path class="cls-11" d="M924.75,1501.51H218.62c-19.67,0-35.68-16-35.68-35.68V94.86c0-19.67,16-35.68,35.68-35.68H924.75c19.67,0,35.68,16,35.68,35.68V1465.84c0,19.67-16,35.68-35.68,35.68ZM218.62,61.19c-18.57,0-33.68,15.11-33.68,33.68V1465.84c0,18.57,15.11,33.68,33.68,33.68H924.75c18.57,0,33.68-15.11,33.68-33.68V94.86c0-18.57-15.11-33.68-33.68-33.68H218.62Z"/>
        <g>
          <rect class="cls-6" x="450.65" y="362.89" width="80.51" height="80.51" transform="translate(981.8 806.29) rotate(180)"/>
          <rect class="cls-6" x="289.48" y="362.89" width="80.51" height="80.51" transform="translate(659.48 806.29) rotate(180)"/>
          <rect class="cls-6" x="772.97" y="524.06" width="80.51" height="80.51" transform="translate(1626.46 1128.62) rotate(180)"/>
          <rect class="cls-6" x="611.81" y="524.06" width="80.51" height="80.51" transform="translate(1304.13 1128.62) rotate(180)"/>
          <rect class="cls-6" x="450.65" y="524.06" width="80.51" height="80.51" transform="translate(981.8 1128.62) rotate(180)"/>
          <rect class="cls-6" x="289.48" y="524.06" width="80.51" height="80.51" transform="translate(659.48 1128.62) rotate(180)"/>
          <rect class="cls-6" x="772.97" y="685.22" width="80.51" height="80.51" transform="translate(1626.46 1450.95) rotate(180)"/>
          <rect class="cls-6" x="611.81" y="685.22" width="80.51" height="80.51" transform="translate(1304.13 1450.95) rotate(180)"/>
          <rect class="cls-5" x="450.65" y="685.22" width="80.51" height="80.51" transform="translate(981.8 1450.95) rotate(180)"/>
          <rect class="cls-6" x="289.48" y="685.22" width="80.51" height="80.51" transform="translate(659.48 1450.95) rotate(180)"/>
          <rect class="cls-6" x="772.97" y="846.38" width="80.51" height="80.51" transform="translate(1626.46 1773.27) rotate(180)"/>
          <rect class="cls-6" x="611.81" y="846.38" width="80.51" height="80.51" transform="translate(1304.13 1773.27) rotate(180)"/>
          <rect class="cls-6" x="450.65" y="846.38" width="80.51" height="80.51" transform="translate(981.8 1773.27) rotate(180)"/>
          <rect class="cls-6" x="289.48" y="846.38" width="80.51" height="80.51" transform="translate(659.48 1773.27) rotate(180)"/>
          <rect class="cls-6" x="772.97" y="1007.55" width="80.51" height="80.51" transform="translate(1626.46 2095.6) rotate(180)"/>
          <rect class="cls-6" x="611.81" y="1007.55" width="80.51" height="80.51" transform="translate(1304.13 2095.6) rotate(180)"/>
          <rect class="cls-6" x="450.65" y="1007.55" width="80.51" height="80.51" transform="translate(981.8 2095.6) rotate(180)"/>
          <rect class="cls-6" x="289.48" y="1007.55" width="80.51" height="80.51" transform="translate(659.48 2095.6) rotate(180)"/>
        </g>
        <path class="cls-10" d="M492.14,784.35h-.09c-21.4-.03-39.96-11.18-49.65-29.83-7.61-14.64-7.68-31.03-.17-41.75,7.08-10.11,16.7-16.07,27.83-17.22,12.72-1.3,26.29,3.84,37.26,14.15,.4,.38,.42,1.01,.04,1.41-.38,.4-1.01,.42-1.41,.04-10.54-9.9-23.55-14.87-35.69-13.61-10.53,1.09-19.66,6.75-26.4,16.37-7.08,10.12-6.96,25.7,.31,39.68,9.34,17.97,27.24,28.72,47.88,28.75h.09c16.5,0,32.09-6.93,42.79-19.02,10.61-11.98,15.33-27.62,13.3-44.03-2.09-16.86-11.96-31.9-27.09-41.28-16.94-10.5-37.51-12.33-57.93-5.15-.52,.19-1.09-.09-1.27-.61-.18-.52,.09-1.09,.61-1.27,21-7.38,42.18-5.48,59.64,5.34,15.65,9.7,25.86,25.27,28.02,42.73,2.1,16.99-2.79,33.18-13.79,45.6-11.08,12.52-27.22,19.7-44.29,19.7Z"/>
      </g>
      <g>
        <g>
          <rect class="cls-2" x="107" y="1235.63" width="277.97" height="277.97" transform="translate(491.97 2749.22) rotate(180)"/>
          <path class="cls-1" d="M408.87,1538.49H130.9c-.55,0-1-.45-1-1v-277.97c0-.55,.45-1,1-1H408.87c.55,0,1,.45,1,1v277.97c0,.55-.45,1-1,1Zm-276.97-2H407.87v-275.97H131.9v275.97Z"/>
        </g>
        <polygon class="cls-10" points="219.26 1465.31 116.34 1354.94 150.57 1323.16 213.84 1390.85 308.39 1253.56 346.85 1280.05 219.26 1465.31"/>
      </g>
      <g>
        <g>
          <path class="cls-4" d="M1713.31,1456.8l-9.48,3.6-171.07-236.24,176.5-157.49,86.47,189.92c35.52,78.02-2.27,169.81-82.42,200.22Z"/>
          <g>
            <path class="cls-4" d="M1003.26,1034.08s-91.43,84.11-141.76,29.66c-52.25-56.53-113.27-121.66-144.91-152.29-65.24-63.14-170.74-146.87-182.27-131.96-6.56,8.49,5.47,22.89,40.17,59.22-3.59-.08-14.53,2.36-19.33,11.23-7.1,13.13,1.94,21.78,2.37,22.92-1.22-.13-15.14-.83-21.38,7.16-7.03,9-5.57,18.58-1.26,26.44-3.03-.22-16.01,.97-21.62,8.94-7.29,10.36-1.49,23.14,6.13,30.3,13.98,13.14,53.09,48.1,71.41,69.22,22.79,26.28,112.14,135.5,174.78,212.3,39.2,48.06,102.15,69.89,162.69,56.43l72.24-16.05,2.72-233.52Z"/>
            <path class="cls-11" d="M646.13,981.62c-.37,0-.72-.2-.89-.55-9.06-18.07-8.98-34.34-8.92-47.42,.06-13.02,.11-21.62-8.66-25.02-7.56-2.94-14.83-9.84-21.62-20.53-2.11-3.33-1.94-7.36,.46-10.51,2.38-3.14,6.35-4.43,10.11-3.29l56.5,17.07c.53,.16,.83,.72,.67,1.25-.16,.53-.71,.83-1.25,.67l-56.5-17.07c-3.58-1.08-6.45,.63-7.94,2.59-1.47,1.94-2.34,5.11-.36,8.23,6.55,10.32,13.5,16.96,20.65,19.74,10.05,3.9,10,14.05,9.93,26.9-.06,12.86-.14,28.86,8.71,46.51,.25,.49,.05,1.09-.45,1.34-.14,.07-.3,.11-.45,.11Z"/>
            <path class="cls-11" d="M551.2,960.96c-.25,0-.49-.09-.69-.27-.4-.38-.42-1.01-.04-1.41,10.23-10.83,10.35-27.9,.26-38.86l-7.98-8.67c-.35-.38-.35-.95-.01-1.34,.34-.38,.91-.45,1.33-.16l18.91,13.37c7.05,4.98,16.64,4.22,22.81-1.82,3.47-3.4,5.38-7.95,5.37-12.81,0-4.86-1.93-9.4-5.42-12.79l-22.12-21.48c-.38-.37-.41-.97-.06-1.38,.35-.4,.95-.46,1.37-.13l11.73,9.19c5.99,4.69,14.78,3.71,19.59-2.19,4.53-5.56,4.17-13.62-.85-18.75l-15.11-15.45c-.39-.39-.38-1.03,.02-1.41,.4-.39,1.03-.38,1.41,.02l15.11,15.45c5.73,5.86,6.14,15.06,.97,21.41-5,6.13-13.77,7.61-20.46,3.79l9.78,9.5c3.88,3.77,6.02,8.81,6.03,14.22,0,5.4-2.11,10.46-5.97,14.24-6.86,6.71-17.53,7.56-25.37,2.02l-11.24-7.94,1.61,1.75c10.79,11.73,10.67,30-.28,41.59-.2,.21-.46,.31-.73,.31Z"/>
          </g>
          <path class="cls-8" d="M1622.37,1278.46l173.78-73.31s-80.31-340.07-417.76-294.6c-105.65,14.23-163.84,21.95-309.96,69.23-184.64,59.74-192.79,65.17-192.79,65.17l95.04,252.53,62.45-16.29-73.7,531.93s498.72,16.29,740.39,0c0,0-55.73-447.75-77.45-534.65Z"/>
          <g>
            <path class="cls-1" d="M1315.47,1433.92c-.41,0-.8-.25-.94-.66l-114.75-322.18-251.38,2.2h0c-.55,0-1-.44-1-.99,0-.55,.44-1,.99-1.01l252.09-2.21c.45-.02,.81,.26,.95,.66l114.99,322.85c.18,.52-.09,1.09-.61,1.28-.11,.04-.22,.06-.34,.06Z"/>
            <polygon class="cls-1" points="1044.43 1454.96 1296.52 1454.96 1181.53 1132.11 929.45 1132.11 1044.43 1454.96"/>
          </g>
          <g>
            <path class="cls-4" d="M1669.65,1278.49c-86.25,5.77-290.02,9.3-309.9,10.43-37.16,2.13-236.28,18.7-237.01,47.7-.35,13.85,38.16,12.39,51.16,11.52-10.15,5.88-51.6,24.25-47.94,39.35,4.29,17.74,57.03,3.42,57.99,3.71-10.92,4.93-55.2,22.79-52.9,34.22,2.99,14.87,49.17,10.6,62.94,8.68-1.18,2.08-45.68,12.91-42.87,30.79,2.07,13.13,44.43,9.15,62.81,7.47,33.02-1.86,418.18-2.74,489.74-12.05,28.01-3.64,3.87-154.82-34.02-181.83Z"/>
            <path class="cls-11" d="M1621.21,1280c-.53,0-.97-.42-1-.96-.02-.55,.4-1.02,.95-1.04,39.14-1.73,77.05-3.43,89.3-4.12,.55-.02,1.02,.39,1.05,.94,.03,.55-.39,1.02-.94,1.05-12.26,.68-50.17,2.38-89.32,4.12-.01,0-.03,0-.04,0Z"/>
            <g>
              <path class="cls-11" d="M1173.37,1347.79c-.39,0-.76-.23-.92-.6-.22-.51,.02-1.1,.52-1.31,7.2-3.1,14.67-5.72,22.21-7.79,13.54-3.73,27.59-5.78,41.75-6.09h.02c.54,0,.99,.43,1,.98,.01,.55-.43,1.01-.98,1.02-14,.31-27.88,2.34-41.27,6.02-7.45,2.05-14.84,4.64-21.95,7.71-.13,.05-.26,.08-.4,.08Z"/>
              <path class="cls-11" d="M1183.15,1391.29c-.43,0-.82-.28-.96-.71-.16-.53,.13-1.09,.66-1.25,1.6-.49,3.22-.96,4.82-1.4,13.55-3.73,27.59-5.78,41.75-6.09h.02c.54,0,.99,.43,1,.98,.01,.55-.43,1.01-.98,1.02-14,.31-27.88,2.34-41.27,6.02-1.58,.44-3.19,.9-4.77,1.39-.1,.03-.2,.04-.29,.04Z"/>
              <path class="cls-11" d="M1194.86,1434.65c-.47,0-.89-.34-.98-.82-.1-.54,.26-1.06,.8-1.17,9.03-1.67,18.29-2.62,27.53-2.83h.02c.54,0,.99,.43,1,.98,.01,.55-.43,1.01-.98,1.02-9.13,.2-18.29,1.14-27.21,2.79-.06,.01-.12,.02-.18,.02Z"/>
            </g>
          </g>
          <path class="cls-11" d="M1621.21,1280c-.34,0-.67-.17-.86-.49l-80.58-136.21c-.28-.47-.12-1.09,.35-1.37,.47-.28,1.09-.12,1.37,.35l80.58,136.21c.28,.47,.12,1.09-.35,1.37-.16,.09-.33,.14-.51,.14Z"/>
        </g>
        <g>
          <path class="cls-4" d="M1167.72,845.04c21.23,28.55,116.42,.65,116.42,.65l74.86-78.79c15.45-47.6-10.61-98.71-58.21-114.16-47.6-15.45-98.71,10.61-114.16,58.21,0,0-40.52,105.01-18.9,134.08Z"/>
          <path class="cls-4" d="M1345.1,996h0c-32.14,12.98-68.71-2.55-81.69-34.69l-75.13-186.03c-3.93-9.74,.77-20.82,10.51-24.75l81.13-32.77c9.74-3.93,20.82,.77,24.75,10.51l75.13,186.03c12.98,32.14-2.55,68.71-34.69,81.69Z"/>
          <path class="cls-4" d="M1189.18,736.84s-32.39,17.48-33.28,24.58c-1.06,8.48,24.29,22.09,24.29,22.09,0,0,8.32-46.82,8.99-46.67Z"/>
          <g>
            <path class="cls-1" d="M1276.37,747.87s-10.8-11.29-26.58-16.41c-3.36-1.09-5.74,27.83-2.06,27.34,16.18-2.14,28.64-10.93,28.64-10.93Z"/>
            <path class="cls-11" d="M1236.21,759.04c-21.38-2.07-37.27-18.67-37.27-18.67,0,0,18.78-13.25,40.16-11.18,3.74,.36,7.31,1.19,10.66,2.27,4.25,9.12,3.2,19.42-2.02,27.32-3.69,.49-7.56,.64-11.53,.25Z"/>
          </g>
          <path class="cls-11" d="M1184.72,877.65c-14.05-8.99-25.6-26.3-29.59-45.52-6.31-30.39,8.85-54,11.98-58.67,11.06,6.47,30.28,15.45,55.24,16.15,12,.34,46.43,1.31,71.62-24.2,14.85-15.03,19.88-32.57,21.76-41.59-.66,7.85-1.33,15.71-1.99,23.56-6.27,16.04-13.57,42.4-8.04,73.12,1.18,6.53,2.8,12.55,4.66,18.02-40.37,45.96-94.82,58.85-125.63,39.13Z"/>
          <path class="cls-4" d="M1200.61,813.59c-4.06,0-8-1.81-10.66-5.06-.35-.43-.29-1.06,.14-1.41,.43-.35,1.06-.29,1.41,.14,2.92,3.58,7.68,5.12,12.11,3.93,4.27-1.14,7.59-4.7,8.45-9.07,.11-.54,.64-.9,1.17-.79,.54,.11,.89,.63,.79,1.17-1.01,5.11-4.9,9.27-9.9,10.61-1.16,.31-2.34,.46-3.51,.46Z"/>
          <path class="cls-11" d="M1368.87,663.92c-11.05-45.99-28.15-60.79-41.97-65.67-17.91-6.32-30.89,3.84-57.68,1.16-26.36-2.64-46.69-15.78-59.74-26.46-25.26,24.13-39.69,56.46-31.58,81.93,11.94,37.49,74.36,65.31,140.62,36-1.59,18.83-3.19,37.66-4.78,56.49,3.45-16.52,14.08-21.97,22.76-20.85,10.18,1.32,16.23,14.61,16.08,24.65-.53,35.42-25.06,43.05-27.22,44.52,10.54,17.48,12.42,20.81,20.15,33.72,38.14-16.67,72.3-62.77,67.82-101.1-2.95-25.22-17.29-43.03-17.29-43.03-9.58-11.83-20.55-18.2-27.17-21.39Z"/>
          <path class="cls-11" d="M1324.79,764.19c-.48,0-.91-.35-.99-.84-1.19-7.33,1.62-14.31,7.16-17.77,4.1-2.56,8.48-2.39,10.73-2.06,.55,.08,.92,.59,.84,1.13-.08,.55-.59,.92-1.13,.84-1.98-.29-5.82-.45-9.38,1.78-4.86,3.03-7.31,9.22-6.25,15.75,.09,.54-.28,1.06-.83,1.15-.05,0-.11,.01-.16,.01Z"/>
        </g>
      </g>
      <g>
        <g>
          <rect class="cls-2" x="1001.17" y="97.54" width="277.97" height="277.97" transform="translate(2280.3 473.04) rotate(180)"/>
          <path class="cls-1" d="M1303.03,400.4h-277.97c-.55,0-1-.45-1-1V121.44c0-.55,.45-1,1-1h277.97c.55,0,1,.45,1,1V399.4c0,.55-.45,1-1,1Zm-276.97-2h275.97V122.44h-275.97V398.4Z"/>
        </g>
        <polygon class="cls-10" points="1113.43 327.22 1010.51 216.85 1044.73 185.07 1108.01 252.76 1202.55 115.47 1241.02 141.96 1113.43 327.22"/>
      </g>
    </g>
  </g>
</svg>