<?xml version="1.0" encoding="UTF-8"?>
<svg id="Layer_1" data-name="Layer 1" xmlns="http://www.w3.org/2000/svg" viewBox="0 0 231.99 175.96">
  <defs>
    <style>
      .cls-1 {
        fill: #fff;
      }

      .cls-2 {
        fill: #19764d;
      }

      .cls-2, .cls-3, .cls-4, .cls-5, .cls-6, .cls-7, .cls-8, .cls-9, .cls-10, .cls-11, .cls-12, .cls-13, .cls-14, .cls-15, .cls-16, .cls-17, .cls-18, .cls-19, .cls-20, .cls-21 {
        fill-rule: evenodd;
      }

      .cls-3 {
        fill: #26805b;
      }

      .cls-4 {
        fill: #207c56;
      }

      .cls-5 {
        fill: #2e8764;
      }

      .cls-6 {
        fill: #267c55;
      }

      .cls-7 {
        fill: #82cce9;
      }

      .cls-8 {
        fill: #1e7e5a;
      }

      .cls-9 {
        fill: #277e58;
      }

      .cls-10 {
        fill: #12a79e;
      }

      .cls-11 {
        fill: #207b53;
      }

      .cls-12 {
        fill: #2387a8;
      }

      .cls-13, .cls-22 {
        fill: #1c75bc;
      }

      .cls-14 {
        fill: #227b55;
      }

      .cls-15 {
        fill: #247d56;
      }

      .cls-16 {
        fill: #247c54;
      }

      .cls-17 {
        fill: #147851;
      }

      .cls-18 {
        fill: #1d7b55;
      }

      .cls-19 {
        fill: #13754c;
      }

      .cls-20 {
        fill: #227b54;
      }

      .cls-21 {
        fill: #f5fbfb;
      }
    </style>
  </defs>
  <path class="cls-13" d="M137.48,47.49c-4.04,1.09-9.54,6.05-9.54,8.6,0,.18-.2,.77-.44,1.31-.68,1.51-1.01,5.52-.7,8.55,.14,1.4,.46,2.96,.7,3.5,.24,.54,.44,1.11,.44,1.28s.51,1.17,1.14,2.23c6.02,10.13,18.93,9.35,23.57-1.42,1.52-3.52,1.87-5.84,1.56-10.2-.17-2.41-.37-3.18-1.59-6.13-2.38-5.74-9.33-9.29-15.15-7.72"/>
  <path class="cls-13" d="M169.7,51.92c0,.39,.13,1.6,.3,2.7,.35,2.33-.24,8.06-1.09,10.72-.27,.85-.57,1.92-.67,2.38-.09,.46-.34,1-.54,1.2-.2,.2-.37,.5-.37,.68,0,1.24-6.05,9.18-6.99,9.18-.12,0-.41,.2-.64,.45-.57,.61-5.58,3.57-6.03,3.57-.2,0-.68,.21-1.06,.46-1.27,.83-5.55,2.46-7.82,2.97-.73,.16-2.21,.5-3.3,.75-1.09,.25-4.47,.59-7.52,.77-3.04,.17-5.82,.39-6.18,.48-.35,.09-2.01,.3-3.68,.46-3.17,.3-4.04,.66-2.86,1.18,.37,.17,.76,.45,.85,.63,.1,.18,.55,.54,1.01,.79,.87,.47,.95,.53,3.35,2.31,.8,.6,1.7,1.24,2,1.43,3.35,2.08,13.03,12.63,13.03,14.19,0,.13,.2,.49,.44,.81,1.38,1.78,3.39,7.21,4.28,11.53,.64,3.1,.79,10.93,.27,13.28-.15,.68-.43,2.14-.61,3.24-.37,2.26-1.05,4.78-1.78,6.67-.27,.7-.49,1.37-.49,1.49,0,.26-1.25,3.55-1.6,4.19-.14,.25-.32,.67-.4,.93-.29,.87-.65,1.7-1.28,2.93-.35,.68-.82,1.65-1.05,2.16-.23,.51-1.06,2.32-1.85,4.01-2.26,4.86-1.84,6.01,1.31,3.56,.87-.67,1.72-1.23,1.91-1.24,.18,0,.33-.15,.33-.33s.21-.41,.46-.52c.4-.18,2.59-1.93,4.15-3.33,8.73-7.81,15.62-16.93,20.42-27.02,.61-1.27,1.22-2.52,1.35-2.78,.14-.25,.38-.81,.54-1.24,.71-1.9,1.39-3.64,1.85-4.69,.27-.63,.5-1.3,.5-1.5s.17-.79,.38-1.33c.54-1.38,1.46-4.48,1.7-5.76,.11-.59,.4-1.78,.63-2.62,.75-2.76,1.49-6.44,1.67-8.34,.1-1.02,.29-2.2,.43-2.62,.97-2.96,1.02-17.04,.08-22.85-.21-1.27-.45-3.36-.54-4.63-.09-1.27-.33-3.01-.53-3.86-.2-.85-.48-2.59-.63-3.86-.15-1.27-.45-3.08-.67-4-.22-.93-.4-1.95-.4-2.27s-.22-1.5-.5-2.63c-.27-1.13-.6-2.6-.73-3.26-.28-1.46-1.41-2.59-1.41-1.41"/>
  <g>
    <path class="cls-12" d="M226.91,138.57c-2.78,4.49-6.09,8.72-9.93,12.68l-.2,.49c-1.84,.41-2.99,1.28-3.44,2.63-2.67,1.05-4.83,2.47-6.47,4.28-4.04,1.51-7.87,3.2-11.51,5.09-20.69,6.67-45.76,8.49-75.2,5.48-8.56-.85-17.39-2.27-26.49-4.25-2.25-.53-4.23-1.44-5.93-2.73l.2-.49c.12-.9,.76-1.51,1.92-1.81,11.76,2.77,22.87,4.36,33.34,4.76,16.53,1.63,30.98,.83,43.34-2.4,10.84-2.12,19.46-5.9,25.84-11.34l.2-.49c11.54-7.66,16.62-18.1,15.25-31.32,.04-8.98-3.49-18.52-10.56-28.64-9.85-15.86-25.2-30.95-46.07-45.28-5.09-3.45-10.42-6.71-15.98-9.76-9.79-5.7-19.57-11.47-29.35-17.29-10.75-13.58-5.79-18.96,14.88-16.14,12.83,5.24,24.77,11.51,35.8,18.79,37.17,24.33,61.15,49.92,71.94,76.75,5.15,15.43,4.63,29.09-1.58,40.99Z"/>
    <path class="cls-7" d="M149.99,22.47c1.14,.08,2.28,.17,3.43,.25,.91,.3,1.51,.74,1.81,1.32-1.75-.17-3.49-.69-5.23-1.58Z"/>
    <path class="cls-21" d="M153.42,22.72c-1.14-.08-2.28-.17-3.43-.25-2.08-.48-4.16-1.14-6.24-1.99-4.99-1.94-9.93-3.29-14.8-4.07-3.78-1.27-7.5-2.7-11.17-4.31-3.37-3.94-2.18-5.87,3.55-5.77,11.58,4.43,22.28,9.89,32.08,16.39Z"/>
  </g>
  <g>
    <path class="cls-12" d="M14.4,16.38c3.95-3.51,8.29-6.64,13.03-9.38l.34-.41c1.8,.09,3.12-.44,3.95-1.6,2.76-.3,5.17-1.09,7.23-2.37,4.14-.38,8.16-1,12.06-1.84,20.9-.97,44.24,3.73,70.02,14.11,7.51,3,15.08,6.59,22.71,10.78,1.87,1.08,3.38,2.44,4.52,4.09l-.34,.41c-.39,.82-1.17,1.22-2.32,1.21-9.8-5.62-19.39-9.95-28.77-13.01-14.5-5.76-27.87-8.71-40.12-8.84-10.52-.78-19.53,.56-27.05,4.04l-.34,.41c-12.9,4.25-20.82,12.76-23.75,25.54-2.87,8.43-2.69,18.31,.53,29.63,3.92,17.43,13.09,35.55,27.51,54.37,3.53,4.55,7.34,8.97,11.43,13.27,7.08,7.87,14.15,15.79,21.19,23.77,5.46,15.52-.74,19.31-18.62,11.36-9.99-8.22-18.85-17.16-26.56-26.83C14.99,112.7,1.31,82.51,0,54.52c.2-15.82,5-28.53,14.4-38.13Z"/>
    <path class="cls-7" d="M47.52,145.23c-1.01-.37-2.02-.74-3.03-1.12-.73-.51-1.14-1.08-1.22-1.71,1.53,.61,2.95,1.55,4.25,2.82Z"/>
    <path class="cls-21" d="M44.49,144.12c1.01,.37,2.02,.74,3.03,1.12,1.74,.98,3.41,2.14,5.04,3.47,3.92,3.1,7.97,5.64,12.15,7.61,3.03,2.16,5.95,4.46,8.78,6.91,1.81,4.57,.12,6.07-5.05,4.51-9.12-7.13-17.1-15-23.95-23.62Z"/>
  </g>
  <g>
    <g>
      <path class="cls-10" d="M65.43,9.39c.22,.15,.38,.34,.47,.59,.26,.57,.59,1.14,.98,1.69,.21,.18,.26,.15,.13-.09,1.32,1.29,2.58,2.64,3.79,4.03-.32-.18-.37-.15-.13,.09,.84,.84,1.7,1.65,2.57,2.44,.14,.05,.24,.14,.3,.27,1.56,1.61,3.16,3.2,4.81,4.75,5.22,5.62,10.03,11.55,14.43,17.77,.5,.99,1.15,1.91,1.94,2.76,.07,.33,.21,.65,.42,.94-.02,.15,.03,.31,.15,.47,.66,.79,1.11,1.64,1.35,2.55,.28,.43,.57,.85,.88,1.25,.25,.56,.48,1.12,.69,1.69,.23,.46,.5,.9,.81,1.32,.39,1.04,.76,2.08,1.09,3.12,.65,1.17,1.07,2.34,1.25,3.53,.23,.82,.51,1.63,.86,2.44,.2,.71,.35,1.42,.46,2.11,.27,2.17,.41,4.3,.45,6.39,.07-.07,.1-.16,.1-.27,.08,.16,.09,.31,.04,.46-.08,.06-.14,.16-.16,.3-.01,.63-.04,1.26-.08,1.88-.59,1.14-.91,2.43-.97,3.87,0,.18-.05,.29-.17,.35,.03-.1,.03-.21,0-.33-.5,.73-.9,1.54-1.19,2.43-.35,.27-.71,.51-1.08,.73l-.31-.17c-.25-1.26-.48-2.52-.7-3.78-.35-.67-.66-1.35-.92-2.04-.43-1.77-1.1-3.53-2-5.26-.07-.38-.16-.75-.27-1.14-.76-1.13-1.29-2.3-1.6-3.5-1.68-3.09-3.36-6.18-5.05-9.27-.23-.3-.49-.55-.79-.76-.08-.4-.25-.78-.5-1.15-.51-.8-1.07-1.57-1.68-2.28-.79-1.26-1.66-2.48-2.6-3.66-2.41-2.96-4.9-5.85-7.48-8.67-1.74-1.74-2.44-1.52-2.1,.67,.28,.47,.59,.93,.92,1.38,.07,.31,.17,.62,.3,.93,.94,1.64,1.66,3.31,2.15,5.01,.29,.54,.62,1.05,1,1.53,.26,1.24,.74,2.46,1.46,3.65,.24,1.24,.69,2.47,1.34,3.69,.48,1.22,.85,2.45,1.11,3.68,.77,1.5,1.25,3,1.43,4.51,.52,1.57,.98,3.14,1.4,4.71,.39,2.99,.96,6.01,1.72,9.06,.11,.48,.11,.93,.01,1.33-.36,.02-.75-.06-1.16-.24-1.23-.6-2.45-1.26-3.66-1.99l-.6-.49c-.1-.05-.17-.05-.23-.01-.14-.05-.24-.14-.3-.27-1.04-.63-2.21-1.41-3.49-2.34-.16-.09-.31-.13-.43-.13-.14-.05-.24-.14-.3-.27,.28,.13,.28,.07,.02-.15-1.53-1.18-3.04-2.4-4.53-3.67-.18-.28-.36-.56-.55-.85-.92-.59-1.75-1.34-2.49-2.23-3.01-3.69-5.73-7.56-8.14-11.61-.34-.71-.66-1.44-.96-2.17-.09-.78-.37-1.51-.84-2.21-.39-1.04-.7-2.08-.92-3.13-.55-3.27-.87-6.48-.95-9.63-.01-4.57-.14-9.18-.38-13.83-.14-2.6-.38-5.22-.72-7.86,.01-.07,.05-.08,.12-.04,.2-.15,.31-.38,.34-.69,.03-.46,.07-.92,.11-1.37,.19-.51,.35-1.05,.49-1.6,.04-.84,.13-1.63,.27-2.38,.18-.32,.34-.63,.49-.94,.17-.38,.32-.99,.47-1.83,.53-.94,.85-2.01,.97-3.21,.32-.91,.87-1.59,1.64-2.02,.18,.02,.33,.12,.46,.31,.26,1.96,1.02,3.87,2.26,5.73,.24,.91,.7,1.76,1.35,2.55,.18,.22,.38,.42,.59,.59Z"/>
      <path class="cls-20" d="M65.43,9.39c-.21-.17-.41-.37-.59-.59-.66-.78-1.11-1.63-1.35-2.55-1.24-1.86-2-3.77-2.26-5.73-.13-.19-.28-.29-.46-.31-.77,.44-1.31,1.11-1.64,2.02-.12,1.2-.44,2.27-.97,3.21-.15,.84-.3,1.45-.47,1.83,.11-1.21,.41-2.29,.92-3.23,.12-1.35,.53-2.48,1.23-3.39,.97-1.11,1.52-.78,1.66,1.01,.44,1.57,1.15,3.09,2.11,4.55,.08,.51,.28,1.01,.61,1.49,.42,.56,.82,1.13,1.21,1.7Z"/>
      <path class="cls-3" d="M65.9,9.97c.42,.5,.79,1.03,1.11,1.59,.13,.25,.08,.28-.13,.09-.39-.55-.72-1.11-.98-1.69Z"/>
      <path class="cls-17" d="M68.52,13.48c-.5-.42-.96-.91-1.36-1.45,.5,.42,.95,.9,1.36,1.45Z"/>
      <path class="cls-19" d="M68.52,13.48c.26,.17,.49,.39,.69,.65-.29-.13-.52-.34-.69-.65Z"/>
      <path class="cls-8" d="M70.8,15.6c.84,.83,1.65,1.67,2.44,2.53-.87-.78-1.72-1.6-2.57-2.44-.24-.25-.19-.28,.13-.09Z"/>
      <path class="cls-5" d="M57.2,8.21c-.14,.75-.23,1.54-.27,2.38-.13,.56-.29,1.09-.49,1.6-.04,.45-.08,.91-.11,1.37-.03,.32-.14,.55-.34,.69,.25-.62,.33-1.33,.23-2.13,.18-.49,.37-.98,.57-1.44,0-.9,.13-1.73,.4-2.47Z"/>
      <path class="cls-11" d="M73.53,18.4c3.4,3.01,6.59,6.3,9.56,9.86,2.96,3.49,5.8,7.08,8.5,10.77,.45,.61,.84,1.25,1.17,1.9-4.4-6.23-9.21-12.15-14.43-17.77-1.65-1.56-3.25-3.14-4.81-4.75Z"/>
      <path class="cls-6" d="M92.77,40.93c.57,.91,1.23,1.76,1.98,2.56,.17,.38,.3,.77,.38,1.14-.21-.29-.35-.61-.42-.94-.8-.84-1.45-1.76-1.94-2.76Z"/>
      <path class="cls-9" d="M95.13,44.63c.27,.32,.51,.66,.75,1.01,.48,1.1,1.03,2.18,1.64,3.25-.31-.4-.6-.81-.88-1.25-.24-.91-.69-1.76-1.35-2.55-.13-.16-.18-.31-.15-.47Z"/>
      <path class="cls-4" d="M55.87,14.3c.34,2.63,.58,5.25,.72,7.86,.24,4.65,.37,9.26,.38,13.83,.08,3.15,.4,6.36,.95,9.63,.22,1.05,.52,2.1,.92,3.13-.45-.8-.75-1.62-.91-2.47-.63-3.38-1.01-6.7-1.13-9.95-.02-7.29-.33-14.64-.94-22.03Z"/>
      <path class="cls-15" d="M97.51,48.89c.59,1.25,1.24,2.48,1.96,3.7,.25,.8,.5,1.59,.75,2.39,.37,.58,.66,1.17,.85,1.78,.4,1.75,.91,3.49,1.54,5.23,.42,2.48,.62,4.89,.59,7.24,0,.11-.04,.21-.1,.27-.03-2.1-.18-4.23-.45-6.39-.11-.7-.26-1.4-.46-2.11-.34-.81-.63-1.62-.86-2.44-.18-1.19-.6-2.37-1.25-3.53-.33-1.04-.7-2.08-1.09-3.12-.31-.42-.58-.86-.81-1.32-.21-.57-.44-1.14-.69-1.69Z"/>
      <path class="cls-16" d="M85.8,49.55c.61,.72,1.17,1.48,1.68,2.28,.25,.37,.42,.75,.5,1.15,.29,.21,.56,.46,.79,.76,1.68,3.09,3.36,6.18,5.05,9.27,.31,1.2,.84,2.37,1.6,3.5,.11,.38,.2,.76,.27,1.14,.9,1.73,1.56,3.48,2,5.26,.26,.69,.57,1.37,.92,2.04,.22,1.26,.45,2.52,.7,3.78l.31,.17c-.05,.24-.17,.25-.35,.03-.33-1.24-.57-2.47-.71-3.68-.78-1.58-1.36-3.17-1.73-4.78-.35-.85-.75-1.68-1.19-2.51-.23-1.18-.72-2.33-1.49-3.45-.18-.48-.33-.97-.45-1.45-1.68-3.09-3.36-6.18-5.05-9.27-.21-.23-.45-.43-.7-.6-.14-.39-.3-.77-.5-1.15-.57-.83-1.12-1.65-1.65-2.49Z"/>
      <path class="cls-14" d="M85.8,49.55c-3.05-4.11-6.32-8.06-9.81-11.86-.45-.49-.93-.95-1.43-1.38-.56-.22-.87-.06-.93,.48-.04,.33,0,.68,.11,1.05,.33,.51,.67,1.02,1,1.53,.02,.26,.09,.52,.22,.78,.97,1.69,1.72,3.41,2.24,5.17,.28,.47,.59,.93,.92,1.38,.11,.66,.31,1.31,.59,1.97,.74,1.22,1.22,2.47,1.44,3.75,.86,1.66,1.46,3.34,1.8,5.04,.82,1.67,1.35,3.35,1.58,5.03,.43,1.37,.85,2.73,1.27,4.1,.47,3.32,1.1,6.67,1.91,10.04,.18,.53,.07,.85-.33,.97-1.57-.5-3.12-1.23-4.65-2.2-.31-.25-.61-.5-.9-.76,.05-.04,.13-.04,.23,.01l.6,.49c1.21,.73,2.43,1.39,3.66,1.99,.41,.19,.79,.27,1.16,.24,.1-.4,.09-.84-.01-1.33-.76-3.05-1.33-6.07-1.72-9.06-.42-1.57-.88-3.14-1.4-4.71-.18-1.51-.66-3.02-1.43-4.51-.26-1.23-.64-2.46-1.11-3.68-.65-1.22-1.1-2.45-1.34-3.69-.72-1.19-1.2-2.41-1.46-3.65-.38-.48-.72-1-1-1.53-.49-1.7-1.21-3.37-2.15-5.01-.13-.31-.23-.62-.3-.93-.33-.44-.63-.9-.92-1.38-.34-2.19,.36-2.41,2.1-.67,2.57,2.82,5.06,5.71,7.48,8.67,.94,1.18,1.8,2.4,2.6,3.66Z"/>
      <path class="cls-18" d="M103.26,69.69c-.02,.74-.06,1.46-.12,2.18-.46,1.22-.82,2.5-1.08,3.86,.06-1.44,.38-2.73,.97-3.87,.04-.62,.06-1.25,.08-1.88,.02-.14,.08-.24,.16-.3Z"/>
      <path class="cls-14" d="M58.85,48.75c.47,.7,.75,1.44,.84,2.21,.3,.73,.62,1.46,.96,2.17-.27-.42-.52-.85-.76-1.29-.31-1.04-.66-2.07-1.04-3.09Z"/>
      <path class="cls-15" d="M101.89,76.08c-.47,.71-.84,1.5-1.12,2.36-.34,.24-.73,.39-1.16,.47,.37-.22,.74-.46,1.08-.73,.29-.89,.69-1.7,1.19-2.43,.04,.12,.04,.23,0,.33Z"/>
      <path class="cls-6" d="M60.64,53.13c2.41,4.05,5.13,7.93,8.14,11.61,.74,.89,1.57,1.64,2.49,2.23,.18,.28,.36,.56,.55,.85,1.49,1.26,3,2.49,4.53,3.67,.26,.23,.25,.28-.02,.15-1.38-1.08-2.76-2.18-4.13-3.29-.37-.29-.65-.65-.85-1.07-1.06-.75-2.01-1.65-2.86-2.71-2.98-3.59-5.59-7.41-7.82-11.44Z"/>
    </g>
    <path class="cls-2" d="M76.61,71.91c.13,0,.27,.04,.43,.13,1.29,.92,2.45,1.7,3.49,2.34-1.35-.68-2.66-1.5-3.93-2.46Z"/>
  </g>
  <g>
    <g>
      <path class="cls-10" d="M53.25,73.26c.45,.04,.8,.19,1.04,.46,.65,.6,1.41,1.14,2.29,1.61,.44,.09,.51,.02,.21-.23,2.79,.8,5.49,1.72,8.1,2.76-.64-.01-.71,.06-.21,.23,1.79,.53,3.59,1.02,5.4,1.46,.27-.04,.48,.01,.62,.15,3.32,1.07,6.71,2.07,10.18,2.99,11.18,3.89,21.71,8.51,31.58,13.86,1.2,1.01,2.66,1.8,4.36,2.37,.22,.41,.57,.74,1.04,1,0,.23,.14,.41,.42,.54,1.44,.6,2.51,1.44,3.22,2.53,.64,.39,1.29,.75,1.97,1.07,.62,.59,1.21,1.2,1.77,1.84,.56,.47,1.18,.87,1.87,1.23,1.02,1.15,1.99,2.32,2.91,3.52,1.53,1.13,2.64,2.46,3.32,3.98,.66,.97,1.42,1.89,2.29,2.76,.57,.84,1.05,1.71,1.45,2.6,1.12,2.82,2.02,5.68,2.7,8.58,.1-.15,.13-.3,.1-.46,.19,.16,.26,.37,.21,.61-.14,.15-.2,.32-.21,.54,.16,.89,.3,1.79,.42,2.68-.73,2.04-.94,4.08-.62,6.13,.06,.24-.01,.45-.21,.61,.03-.16,0-.31-.1-.46-.7,1.39-1.18,2.82-1.45,4.29-.56,.64-1.15,1.25-1.77,1.84h-.62c-.83-1.57-1.62-3.15-2.39-4.75-.84-.67-1.6-1.39-2.29-2.14-1.32-2.14-3.05-4.09-5.19-5.82-.24-.47-.51-.93-.83-1.38-1.72-1.01-3.03-2.23-3.95-3.68-3.98-3.04-7.96-6.08-11.94-9.11-.51-.24-1.06-.39-1.66-.46-.26-.49-.68-.9-1.25-1.23-1.17-.74-2.41-1.37-3.74-1.91-1.81-1.16-3.75-2.2-5.82-3.14-5.28-2.3-10.68-4.45-16.2-6.43-3.69-1.11-4.91-.26-3.64,2.53,.65,.45,1.35,.85,2.08,1.23,.22,.38,.5,.74,.83,1.07,2.2,1.57,4,3.36,5.4,5.36,.69,.53,1.45,.99,2.29,1.38,.83,1.54,2.08,2.86,3.74,3.98,.81,1.55,1.99,2.93,3.53,4.14,1.23,1.34,2.27,2.77,3.12,4.29,1.85,1.5,3.17,3.24,3.95,5.21,1.41,1.8,2.72,3.64,3.95,5.51,1.59,3.88,3.53,7.65,5.82,11.34,.34,.59,.48,1.21,.42,1.84-.65,.31-1.38,.49-2.18,.54-2.42,.1-4.85,.1-7.27,0l-1.25-.23c-.19,0-.33,.06-.42,.15-.27,.04-.48-.01-.62-.15-2.09-.1-4.44-.3-7.06-.61-.32,0-.6,.05-.83,.15-.27,.04-.48-.01-.62-.15,.54-.03,.54-.11,0-.23-3.14-.49-6.26-1.05-9.35-1.68-.42-.26-.83-.51-1.25-.77-1.85-.13-3.58-.54-5.19-1.23-6.59-2.86-12.68-6.21-18.28-10.03-.83-.74-1.62-1.5-2.39-2.3-.39-1.02-1.11-1.83-2.18-2.45-1.02-1.15-1.89-2.38-2.6-3.68-1.97-4.15-3.49-8.39-4.57-12.71-1.37-6.36-2.96-12.69-4.78-18.99-1.02-3.53-2.23-7-3.64-10.42,0-.1,.07-.15,.21-.15,.32-.35,.46-.76,.42-1.23-.08-.66-.15-1.33-.21-1.99,.2-.86,.34-1.73,.42-2.6-.17-1.2-.24-2.38-.21-3.52,.23-.57,.44-1.14,.62-1.68,.19-.66,.29-1.63,.31-2.91,.69-1.71,.96-3.44,.83-5.21,.32-1.52,1.12-2.87,2.39-4.06,.33-.11,.65-.08,.93,.08,1.06,2.53,3,4.63,5.82,6.28,.72,1.09,1.79,1.93,3.22,2.53,.4,.17,.81,.3,1.25,.38Z"/>
      <path class="cls-20" d="M53.25,73.26c-.43-.08-.85-.21-1.25-.38-1.43-.6-2.5-1.44-3.22-2.53-2.82-1.66-4.76-3.75-5.82-6.28-.29-.16-.6-.19-.93-.08-1.27,1.19-2.07,2.54-2.39,4.06,.13,1.76-.14,3.5-.83,5.21-.02,1.28-.12,2.25-.31,2.91-.16-1.77,.08-3.51,.73-5.21-.18-1.97,.24-3.86,1.25-5.67,1.44-2.29,2.54-2.24,3.32,.15,1.27,1.86,3,3.44,5.19,4.75,.29,.66,.81,1.19,1.56,1.61,.94,.46,1.84,.95,2.7,1.46Z"/>
      <path class="cls-3" d="M54.29,73.72c.91,.39,1.74,.85,2.49,1.38,.31,.25,.24,.32-.21,.23-.87-.47-1.63-1.01-2.29-1.61Z"/>
      <path class="cls-17" d="M60.11,76.63c-1.04-.21-2.01-.54-2.91-1,1.04,.2,2.01,.54,2.91,1Z"/>
      <path class="cls-19" d="M60.11,76.63c.52,.04,1.01,.17,1.45,.38-.57,.05-1.05-.08-1.45-.38Z"/>
      <path class="cls-8" d="M64.88,77.86c1.77,.53,3.5,1.09,5.19,1.68-1.81-.44-3.61-.92-5.4-1.46-.51-.17-.44-.24,.21-.23Z"/>
      <path class="cls-5" d="M37.88,77.86c-.03,1.15,.04,2.32,.21,3.52-.08,.88-.21,1.74-.42,2.6,.06,.66,.13,1.33,.21,1.99,.04,.46-.09,.87-.42,1.23,.28-1.06,.21-2.1-.21-3.14,.17-.82,.38-1.64,.62-2.45-.27-1.25-.27-2.5,0-3.75Z"/>
      <path class="cls-11" d="M70.7,79.69c7.1,1.62,13.89,3.79,20.36,6.51,6.44,2.63,12.67,5.49,18.7,8.58,.99,.52,1.89,1.11,2.7,1.76-9.87-5.35-20.39-9.97-31.58-13.86-3.46-.92-6.86-1.92-10.18-2.99Z"/>
      <path class="cls-6" d="M112.45,96.54c1.31,.83,2.76,1.52,4.36,2.07,.43,.4,.78,.84,1.04,1.3-.47-.25-.81-.58-1.04-1-1.7-.57-3.16-1.37-4.36-2.37Z"/>
      <path class="cls-9" d="M117.86,99.91c.58,.25,1.13,.53,1.66,.84,1.2,1.17,2.52,2.27,3.95,3.29-.68-.32-1.34-.68-1.97-1.07-.71-1.09-1.78-1.93-3.22-2.53-.27-.12-.41-.3-.42-.54Z"/>
      <path class="cls-4" d="M37.26,87.35c1.4,3.42,2.61,6.89,3.64,10.42,1.82,6.3,3.41,12.63,4.78,18.99,1.08,4.33,2.6,8.56,4.57,12.71,.71,1.3,1.57,2.53,2.6,3.68-1.05-.78-1.85-1.7-2.39-2.76-2.15-4.24-3.81-8.58-4.99-13.02-2.18-10.16-4.92-20.17-8.21-30.02Z"/>
      <path class="cls-15" d="M123.46,104.05c1.45,1.3,3,2.52,4.67,3.68,.69,.92,1.38,1.84,2.08,2.76,.85,.52,1.54,1.14,2.08,1.84,1.24,2.13,2.69,4.18,4.36,6.13,1.5,3.14,2.57,6.36,3.22,9.65,.03,.16,0,.31-.1,.46-.68-2.9-1.58-5.76-2.7-8.58-.4-.89-.89-1.76-1.45-2.6-.87-.87-1.63-1.79-2.29-2.76-.69-1.52-1.79-2.85-3.32-3.98-.92-1.2-1.89-2.37-2.91-3.52-.68-.35-1.31-.76-1.87-1.23-.56-.64-1.15-1.25-1.77-1.84Z"/>
      <path class="cls-16" d="M102.28,113.85c1.32,.54,2.57,1.18,3.74,1.91,.57,.33,.98,.73,1.25,1.23,.6,.07,1.15,.22,1.66,.46,3.98,3.04,7.96,6.08,11.94,9.11,.91,1.44,2.23,2.67,3.95,3.68,.32,.45,.59,.91,.83,1.38,2.15,1.74,3.88,3.68,5.19,5.82,.68,.76,1.44,1.47,2.29,2.14,.77,1.6,1.56,3.18,2.39,4.75h.62c-.02,.38-.23,.48-.62,.31-.97-1.48-1.77-3.01-2.39-4.6-1.89-1.61-3.41-3.4-4.57-5.36-.89-.91-1.86-1.78-2.91-2.6-.76-1.48-2.01-2.71-3.74-3.68-.47-.54-.88-1.1-1.25-1.68-3.98-3.04-7.96-6.08-11.94-9.11-.46-.16-.94-.26-1.45-.31-.36-.44-.78-.84-1.25-1.23-1.29-.72-2.53-1.46-3.74-2.22Z"/>
      <path class="cls-14" d="M102.28,113.85c-6.78-3.42-13.91-6.46-21.4-9.11-.97-.35-1.98-.63-3.01-.84-1.08,.11-1.6,.57-1.56,1.38,.03,.49,.2,.95,.52,1.38,.76,.46,1.52,.92,2.29,1.38,.12,.34,.32,.65,.62,.92,2.27,1.62,4.14,3.46,5.61,5.51,.65,.45,1.35,.85,2.08,1.23,.39,.83,.95,1.6,1.66,2.3,1.71,1.15,2.96,2.53,3.74,4.14,2.06,1.66,3.66,3.55,4.78,5.67,1.99,1.71,3.44,3.65,4.36,5.82,1.18,1.59,2.36,3.17,3.53,4.75,1.83,4.28,3.98,8.46,6.44,12.56,.48,.6,.38,1.14-.31,1.61-3.01,.5-6.06,.65-9.14,.46-.63-.11-1.26-.24-1.87-.38,.09-.1,.23-.15,.42-.15l1.25,.23c2.42,.1,4.85,.1,7.27,0,.8-.05,1.53-.23,2.18-.54,.06-.63-.07-1.24-.42-1.84-2.29-3.68-4.23-7.46-5.82-11.34-1.22-1.87-2.54-3.71-3.95-5.51-.78-1.97-2.1-3.7-3.95-5.21-.84-1.52-1.88-2.94-3.12-4.29-1.55-1.21-2.72-2.59-3.53-4.14-1.66-1.12-2.91-2.45-3.74-3.98-.84-.39-1.6-.85-2.29-1.38-1.4-2-3.2-3.79-5.4-5.36-.33-.33-.61-.69-.83-1.07-.73-.37-1.42-.78-2.08-1.23-1.27-2.79-.06-3.63,3.64-2.53,5.53,1.99,10.93,4.13,16.2,6.43,2.06,.94,4,1.98,5.82,3.14Z"/>
      <path class="cls-18" d="M140.08,128.71c.18,1.04,.32,2.09,.42,3.14-.49,2.05-.76,4.12-.83,6.2-.32-2.05-.11-4.09,.62-6.13-.12-.9-.25-1.79-.42-2.68,0-.21,.07-.39,.21-.54Z"/>
      <path class="cls-14" d="M52.84,133.15c1.07,.62,1.8,1.43,2.18,2.45,.77,.79,1.56,1.56,2.39,2.3-.62-.38-1.2-.79-1.77-1.23-.88-1.21-1.81-2.39-2.8-3.52Z"/>
      <path class="cls-15" d="M139.46,138.67c-.64,1.34-1.09,2.72-1.35,4.14-.55,.59-1.21,1.1-1.97,1.53,.62-.59,1.21-1.2,1.77-1.84,.27-1.47,.76-2.9,1.45-4.29,.1,.15,.13,.3,.1,.46Z"/>
      <path class="cls-6" d="M57.41,137.9c5.6,3.83,11.69,7.17,18.28,10.03,1.61,.69,3.34,1.09,5.19,1.23,.42,.26,.83,.51,1.25,.77,3.09,.63,6.21,1.2,9.35,1.68,.54,.12,.54,.2,0,.23-2.84-.46-5.68-.95-8.52-1.46-.76-.13-1.39-.41-1.87-.84-2.15-.25-4.16-.78-6.02-1.61-6.5-2.75-12.39-6.1-17.66-10.03Z"/>
    </g>
    <path class="cls-2" d="M92.1,152c.23-.1,.51-.15,.83-.15,2.62,.31,4.97,.52,7.06,.61-2.66,.08-5.29-.08-7.89-.46Z"/>
  </g>
  <g>
    <ellipse class="cls-22" cx="37.26" cy="50.94" rx="6.18" ry="7.37"/>
    <ellipse class="cls-1" cx="39.24" cy="48.8" rx="3.1" ry="3.69"/>
  </g>
  <g>
    <ellipse class="cls-22" cx="115.98" cy="39.56" rx="6.18" ry="7.37"/>
    <ellipse class="cls-1" cx="117.96" cy="37.42" rx="3.1" ry="3.69"/>
  </g>
  <g>
    <ellipse class="cls-22" cx="91.58" cy="22.47" rx="6.18" ry="7.37"/>
    <ellipse class="cls-1" cx="93.56" cy="20.33" rx="3.1" ry="3.69"/>
  </g>
  <g>
    <ellipse class="cls-22" cx="45.05" cy="25.69" rx="6.18" ry="7.37"/>
    <ellipse class="cls-1" cx="47.03" cy="23.56" rx="3.1" ry="3.69"/>
  </g>
  <g>
    <ellipse class="cls-22" cx="57.41" cy="64.32" rx="6.18" ry="7.37"/>
    <ellipse class="cls-1" cx="59.39" cy="62.19" rx="3.1" ry="3.69"/>
  </g>
  <g>
    <ellipse class="cls-22" cx="187.16" cy="103.81" rx="6.18" ry="7.37"/>
    <ellipse class="cls-1" cx="189.14" cy="101.67" rx="3.1" ry="3.69"/>
  </g>
  <g>
    <ellipse class="cls-22" cx="189.14" cy="133.38" rx="6.18" ry="7.37"/>
    <ellipse class="cls-1" cx="191.12" cy="131.25" rx="3.1" ry="3.69"/>
  </g>
  <g>
    <ellipse class="cls-22" cx="159.87" cy="156.23" rx="6.18" ry="7.37"/>
    <ellipse class="cls-1" cx="161.85" cy="154.09" rx="3.1" ry="3.69"/>
  </g>
  <g>
    <ellipse class="cls-22" cx="113.99" cy="69.5" rx="6.18" ry="7.37"/>
    <ellipse class="cls-1" cx="115.98" cy="67.36" rx="3.1" ry="3.69"/>
  </g>
  <g>
    <ellipse class="cls-22" cx="117.29" cy="138.21" rx="6.18" ry="7.37"/>
    <ellipse class="cls-1" cx="119.27" cy="136.07" rx="3.1" ry="3.69"/>
  </g>
</svg>