<?xml version="1.0" encoding="UTF-8"?>
<svg id="Layer_2" data-name="Layer 2" xmlns="http://www.w3.org/2000/svg" viewBox="0 0 1015.33 344.05">
  <defs>
    <style>
      .cls-1 {
        fill: #72726f;
      }

      .cls-2 {
        fill: #49473e;
      }

      .cls-3 {
        fill: #fff;
      }

      .cls-4 {
        fill: #f23325;
      }

      .cls-5 {
        fill: #38bbf4;
      }

      .cls-6, .cls-7 {
        fill: #97c1bf;
      }

      .cls-6, .cls-8 {
        opacity: .4;
      }

      .cls-9 {
        fill: #636152;
      }

      .cls-10 {
        fill: #424038;
      }

      .cls-11 {
        fill: #b7b29e;
      }

      .cls-12 {
        fill: #777464;
      }

      .cls-13 {
        fill: #2b2a25;
      }

      .cls-14 {
        fill: #b52c1a;
      }

      .cls-15, .cls-8 {
        fill: #969283;
      }

      .cls-16 {
        fill: #2e93cc;
      }
    </style>
  </defs>
  <g id="Layer_1-2" data-name="Layer 1">
    <g>
      <g>
        <path class="cls-13" d="M95.35,256.17l187.9,6.92,408.44-6.92,171.09-12.86s-.99-114.75-3.96-111.77c-2.97,2.98-732.82,3.97-732.82,3.97l-33.04,59.28,2.38,61.37h0Z"/>
        <g>
          <g>
            <path class="cls-12" d="M268.79,263.92c0,44.25-35.87,80.13-80.13,80.13s-80.13-35.88-80.13-80.13,35.88-80.13,80.13-80.13,80.13,35.87,80.13,80.13Z"/>
            <path class="cls-10" d="M218.8,190.17c23.29,14.02,43.84,37.14,44.95,66.29,1.52,39.91-16.35,85.17-83.86,83.35-10.66-.29-23.17-2.9-32.47-6.67,12.05,7.25,29.51,10.72,44.6,10.72,44.25,0,76.78-35.17,76.78-79.42,0-33.59-20.67-62.35-49.99-74.26Z"/>
            <path class="cls-11" d="M237.53,263.92c0,26.99-21.88,48.87-48.87,48.87s-48.87-21.88-48.87-48.87,21.88-48.87,48.87-48.87,48.87,21.88,48.87,48.87Z"/>
            <path class="cls-15" d="M233.56,263.92c0,24.79-20.1,44.89-44.89,44.89s-44.89-20.1-44.89-44.89,20.1-44.89,44.89-44.89,44.89,20.1,44.89,44.89Z"/>
            <path class="cls-12" d="M220.49,263.92c0,17.58-14.25,31.82-31.82,31.82s-31.82-14.25-31.82-31.82,14.25-31.82,31.82-31.82,31.82,14.25,31.82,31.82Z"/>
            <g>
              <g>
                <path class="cls-15" d="M193.26,285.09c0,2.54-2.06,4.6-4.6,4.6h0c-2.54,0-4.6-2.06-4.6-4.6v-42.33c0-2.54,2.06-4.6,4.6-4.6h0c2.54,0,4.6,2.06,4.6,4.6v42.33Z"/>
                <path class="cls-15" d="M209.83,258.86c2.54,0,4.6,2.06,4.6,4.6h0c0,2.54-2.06,4.6-4.6,4.6h-42.33c-2.54,0-4.6-2.06-4.6-4.6h0c0-2.54,2.06-4.6,4.6-4.6h42.33Z"/>
              </g>
              <g>
                <path class="cls-15" d="M207.04,275.8c1.8,1.8,1.8,4.71,0,6.51h0c-1.8,1.8-4.71,1.8-6.51,0l-29.93-29.93c-1.8-1.8-1.8-4.71,0-6.51h0c1.8-1.8,4.71-1.8,6.51,0l29.93,29.93Z"/>
                <path class="cls-15" d="M200.21,245.54c1.8-1.8,4.71-1.8,6.51,0h0c1.8,1.8,1.8,4.71,0,6.51l-29.93,29.93c-1.8,1.8-4.71,1.8-6.51,0h0c-1.8-1.8-1.8-4.71,0-6.51l29.93-29.93Z"/>
              </g>
              <path class="cls-15" d="M207.06,263.92c0,10.16-8.24,18.4-18.4,18.4s-18.4-8.24-18.4-18.4,8.24-18.4,18.4-18.4,18.4,8.24,18.4,18.4Z"/>
            </g>
            <path class="cls-8" d="M116.11,259.99l6.82-5.3s.76-25.01,25.38-43.57c22.49-16.95,50.01-14.02,50.01-14.02l2.65-5.3s-34.48-4.17-58.35,15.16c-28.75,23.27-26.52,53.04-26.52,53.04Z"/>
            <path class="cls-11" d="M190.84,242.18c0,1.2-.97,2.18-2.18,2.18s-2.18-.98-2.18-2.18,.98-2.18,2.18-2.18,2.18,.98,2.18,2.18Z"/>
            <path class="cls-11" d="M206,248.25c0,1.2-.98,2.18-2.18,2.18s-2.18-.98-2.18-2.18,.98-2.18,2.18-2.18,2.18,.98,2.18,2.18Z"/>
            <path class="cls-11" d="M213.2,263.59c0,1.2-.97,2.18-2.18,2.18s-2.18-.98-2.18-2.18,.97-2.18,2.18-2.18,2.18,.98,2.18,2.18Z"/>
            <path class="cls-11" d="M206.76,280.07c0,1.2-.98,2.18-2.18,2.18s-2.18-.98-2.18-2.18,.98-2.18,2.18-2.18,2.18,.98,2.18,2.18Z"/>
            <path class="cls-11" d="M190.65,285.75c0,1.2-.98,2.18-2.18,2.18s-2.18-.98-2.18-2.18,.98-2.18,2.18-2.18,2.18,.98,2.18,2.18Z"/>
            <path class="cls-11" d="M175.5,279.12c0,1.2-.98,2.18-2.18,2.18s-2.18-.98-2.18-2.18,.97-2.18,2.18-2.18,2.18,.98,2.18,2.18Z"/>
            <circle class="cls-11" cx="167.26" cy="263.78" r="2.18"/>
            <path class="cls-11" d="M175.5,248.25c0,1.2-.98,2.18-2.18,2.18s-2.18-.98-2.18-2.18,.97-2.18,2.18-2.18,2.18,.98,2.18,2.18Z"/>
          </g>
          <path class="cls-11" d="M198.77,263.92c0,5.58-4.52,10.1-10.1,10.1s-10.1-4.52-10.1-10.1,4.52-10.1,10.1-10.1,10.1,4.52,10.1,10.1Z"/>
        </g>
        <g>
          <g>
            <circle class="cls-12" cx="774.73" cy="258.39" r="80.13" transform="translate(-38.64 184.91) rotate(-13.28)"/>
            <path class="cls-10" d="M804.87,184.63c23.29,14.02,43.84,37.14,44.95,66.29,1.52,39.91-16.35,85.17-83.86,83.35-10.66-.29-23.17-2.89-32.47-6.67,12.05,7.25,29.51,10.72,44.6,10.72,44.25,0,76.78-35.17,76.78-79.42,0-33.59-20.67-62.35-49.99-74.26Z"/>
            <path class="cls-11" d="M823.6,258.39c0,26.99-21.88,48.87-48.87,48.87s-48.87-21.88-48.87-48.87,21.88-48.87,48.87-48.87,48.87,21.88,48.87,48.87Z"/>
            <circle class="cls-15" cx="774.73" cy="258.39" r="44.89" transform="translate(395.58 981.73) rotate(-80.78)"/>
            <circle class="cls-12" cx="774.73" cy="258.39" r="31.82" transform="translate(395.58 981.73) rotate(-80.78)"/>
            <g>
              <g>
                <path class="cls-15" d="M779.33,279.55c0,2.54-2.06,4.6-4.6,4.6h0c-2.54,0-4.6-2.06-4.6-4.6v-42.33c0-2.54,2.06-4.6,4.6-4.6h0c2.54,0,4.6,2.06,4.6,4.6v42.33Z"/>
                <path class="cls-15" d="M795.9,253.32c2.54,0,4.6,2.06,4.6,4.6h0c0,2.54-2.06,4.6-4.6,4.6h-42.33c-2.54,0-4.6-2.06-4.6-4.6h0c0-2.54,2.06-4.6,4.6-4.6h42.33Z"/>
              </g>
              <g>
                <path class="cls-15" d="M793.11,270.26c1.8,1.8,1.8,4.71,0,6.51h0c-1.8,1.8-4.71,1.8-6.51,0l-29.93-29.93c-1.8-1.8-1.8-4.71,0-6.51h0c1.8-1.8,4.71-1.8,6.51,0l29.93,29.93Z"/>
                <path class="cls-15" d="M786.28,240.01c1.8-1.8,4.71-1.8,6.51,0h0c1.8,1.8,1.8,4.71,0,6.51l-29.93,29.93c-1.8,1.8-4.71,1.8-6.51,0h0c-1.8-1.8-1.8-4.71,0-6.51l29.93-29.93Z"/>
              </g>
              <path class="cls-15" d="M793.13,258.39c0,10.16-8.24,18.4-18.4,18.4s-18.4-8.24-18.4-18.4,8.24-18.4,18.4-18.4,18.4,8.24,18.4,18.4Z"/>
            </g>
            <path class="cls-8" d="M702.18,254.45l6.82-5.3s.76-25.01,25.38-43.57c22.49-16.95,50.01-14.02,50.01-14.02l2.65-5.3s-34.48-4.17-58.35,15.15c-28.75,23.27-26.52,53.04-26.52,53.04Z"/>
            <path class="cls-11" d="M776.91,236.65c0,1.2-.97,2.18-2.18,2.18s-2.18-.98-2.18-2.18,.98-2.18,2.18-2.18,2.18,.98,2.18,2.18Z"/>
            <path class="cls-11" d="M792.07,242.71c0,1.2-.97,2.18-2.18,2.18s-2.18-.98-2.18-2.18,.97-2.18,2.18-2.18,2.18,.98,2.18,2.18Z"/>
            <path class="cls-11" d="M799.27,258.05c0,1.2-.97,2.18-2.18,2.18s-2.18-.98-2.18-2.18,.98-2.18,2.18-2.18,2.18,.98,2.18,2.18Z"/>
            <path class="cls-11" d="M792.82,274.53c0,1.2-.98,2.18-2.18,2.18s-2.18-.98-2.18-2.18,.97-2.18,2.18-2.18,2.18,.98,2.18,2.18Z"/>
            <path class="cls-11" d="M776.72,280.22c0,1.2-.98,2.18-2.18,2.18s-2.18-.98-2.18-2.18,.98-2.18,2.18-2.18,2.18,.98,2.18,2.18Z"/>
            <circle class="cls-11" cx="759.39" cy="273.59" r="2.18"/>
            <path class="cls-11" d="M755.51,258.24c0,1.2-.97,2.18-2.18,2.18s-2.18-.98-2.18-2.18,.98-2.18,2.18-2.18,2.18,.98,2.18,2.18Z"/>
            <circle class="cls-11" cx="759.39" cy="242.71" r="2.18"/>
          </g>
          <path class="cls-11" d="M784.84,258.39c0,5.58-4.52,10.1-10.1,10.1s-10.1-4.52-10.1-10.1,4.52-10.1,10.1-10.1,10.1,4.52,10.1,10.1Z"/>
        </g>
        <path class="cls-16" d="M95.35,256.17H33.05s-19.88-11.87-19.83-36.59c.05-24.72,10.93-46.48,10.93-46.48,0,0,0-21.76,23.74-38.57,23.74-16.81,43.65-32.64,122.2-36.59,78.55-3.96,99.32-4.94,99.32-4.94,0,0,97.91-84.06,123.62-86.04,25.71-1.98,267.02-10.88,274.93-4.94,7.91,5.93,13.85,37.58,13.85,73.18s0,22.75,0,22.75c0,0,295.7-13.85,299.65-5.93,3.95,7.91,6.92,103.84,6.92,103.84l-34.61,34.61-90.98,12.86s-7.87-39.61-33.62-58.35c-30.36-22.09-88.58-25.46-116.27,5.2-32.18,35.63-26.78,66.37-26.78,66.37l-402.85,6.56s-5.85-47.09-37.88-72.93c-26.22-21.15-92.66-26.96-122.33,7.13-24.34,27.96-27.69,58.88-27.69,58.88Z"/>
        <path class="cls-7" d="M400.44,21.79c-14.88,7.07-95.29,73.38-95.29,73.38,0,0-6.31,6.62-3.11,10.69,5.37,6.81,13.35,5.44,13.35,5.44,0,0,152.3-1.98,158.73-3.46,6.43-1.48,16.32-13.35,17.31-16.81,.99-3.46,2.14-64.77,0-69.23-2.04-4.25-90.98,0-90.98,0Z"/>
        <path class="cls-2" d="M308.12,102.17s80.41-66.3,95.29-73.38c0,0,74.92-3.58,88.81-.88-.19-3.2-.45-5.41-.79-6.13-2.04-4.25-90.98,0-90.98,0-14.88,7.07-95.29,73.38-95.29,73.38,0,0-6.31,6.62-3.11,10.69,.75,.95,1.55,1.73,2.38,2.39,.94-3.15,3.7-6.06,3.7-6.06Z"/>
        <path class="cls-7" d="M527.53,25.05V90.52s-.55,5.55,3.9,9.01c4.45,3.46,10.93,3.35,10.93,3.35h89.5s7.13-.03,9.6-4.48c2.47-4.45,1.77-7.39,1.77-7.39V22.28s.14-5.22-4.59-6.55c-4.61-1.29-10.24-.87-10.24-.87l-85.97-.3s-6.89,.52-9.96,2.49c-4.96,3.19-4.95,7.98-4.95,7.98Z"/>
        <path class="cls-2" d="M534.94,100.95V35.48s-.01-8.53,4.95-11.71c3.07-1.98,50.46-3.06,50.46-3.06,0,0,48.69-1.37,52.49-.81,0,0,.53-2.84-4.2-4.16-4.61-1.29-10.24-.87-10.24-.87l-85.97-.3s-6.89,.52-9.96,2.49c-4.96,3.19-4.95,7.98-4.95,7.98V90.52s-.55,5.55,3.9,9.01c1.08,.84,2.29,1.47,3.49,1.94,0-.33,.02-.52,.02-.52Z"/>
        <path class="cls-1" d="M14.13,173.62S-3.21,179.87,.53,210.02c4.25,34.23,13.6,46.24,13.6,46.24H57.64s1.03-32.88,7.74-49.58c8.58-21.38,27.6-34.22,27.6-34.22-2.97,1.03-63.02-1.94-78.85,1.16Z"/>
        <path class="cls-1" d="M966.89,193.95c-7.76,1.25-25.85,24.1-26.36,27.61-.5,3.51,6.78,22.84,7.78,23.34,1,.5,48.19,1.26,49.95,0,1.76-1.25,17.07-20.58,17.07-20.58v-32.38s-40.66,.75-48.44,2.01Z"/>
        <path class="cls-5" d="M53.34,256.26s4.43-47.81,23.71-71.05c20.78-25.05,40.55-28.43,68.73-33.38,28.19-4.94,53.9-1.98,53.9-1.98l-5.44,6.43s-31.89-2.97-62.8,11.62c-25.6,12.08-36.1,27.94-44.01,47.72-7.91,19.78-10.73,40.71-10.73,40.71l-23.36-.07Z"/>
        <path class="cls-5" d="M645.73,256.26s4.43-47.81,23.71-71.05c20.78-25.05,40.55-28.43,68.73-33.38,28.18-4.94,53.9-1.98,53.9-1.98l-5.44,6.43s-31.89-2.97-62.8,11.62c-25.6,12.08-36.1,27.94-44.01,47.72-7.91,19.78-10.73,40.71-10.73,40.71l-23.36-.07Z"/>
        <polygon class="cls-5" points="972.56 127.61 273.36 133.79 274.85 119.7 972.56 101.89 972.56 127.61"/>
        <polygon class="cls-5" points="659.55 230.15 304.52 233.18 301.55 226.5 659.55 217.45 659.55 230.15"/>
        <polygon class="cls-5" points="987.94 192.22 860.2 198.32 854.61 192.18 987.82 182.75 987.94 192.22"/>
        <path class="cls-5" d="M59.38,133.05l25.96,2.97s15.21-18.91,53.03-22.25c37.83-3.34,129.8-8.9,129.8-8.9l-1.85-4.82s-56,.74-111.26,3.71c-33.58,1.8-60.82,6.68-74.54,13.72-13.72,7.05-21.14,15.58-21.14,15.58Z"/>
        <path class="cls-7" d="M24.15,173.1H60.49s28.93-27.44,26.7-34.86c-2.23-7.42-45.25-5.19-45.25-5.19,0,0-8.9,3.71-14.83,14.83-5.93,11.13-2.97,25.22-2.97,25.22Z"/>
        <path class="cls-3" d="M43.43,137.87s-6.68,4.08-9.27,10.75c-2.6,6.68-2.97,19.29-2.97,19.29l10.01,.37s1.48-9.66,4.45-15.21c5.56-10.38,16.69-14.46,16.69-14.46l-18.91-.74Z"/>
        <path class="cls-14" d="M985.47,132.12s-29.43,.68-32.48,.68-7.63,3.05-7.63,6.86,2.29,28.22,3.05,31.27,5.34,6.1,10.68,6.1,28.75,.7,28.75,.7l-2.38-45.61Z"/>
        <polygon class="cls-4" points="952.8 137.63 955.53 171.46 966.47 171.46 963.73 137.28 952.8 137.63"/>
        <path class="cls-2" d="M486.98,143.93c0,2.46-1.99,4.45-4.45,4.45h-27.69c-2.46,0-4.45-1.99-4.45-4.45h0c0-2.46,1.99-4.45,4.45-4.45h27.69c2.46,0,4.45,1.99,4.45,4.45h0Z"/>
        <path class="cls-2" d="M636.31,139.97c0,2.46-1.99,4.45-4.45,4.45h-27.69c-2.46,0-4.45-1.99-4.45-4.45h0c0-2.46,1.99-4.45,4.45-4.45h27.69c2.46,0,4.45,1.99,4.45,4.45h0Z"/>
        <path class="cls-2" d="M515.91,245.08c-.03-1.08-2.5-108.48-4.45-147.56-1.95-39.09-5.16-87.02-5.19-87.5l2.96-.2c.03,.48,3.24,48.43,5.19,87.55,1.96,39.13,4.43,146.56,4.45,147.64l-2.97,.07Z"/>
        <path class="cls-2" d="M309.37,250.26l-.33-1.06c-.08-.26-8.22-25.87-19.77-40.31l-21.12-26.4,.03-.56c.15-2.83,3.82-69.51,12.08-83.02,8.21-13.43,99.6-83.53,109.86-86.68,10.25-3.16,266.47-6.74,268.94-6.74,2.27,0,5.09,0,11.12,86.31,2.93,41.99,5.17,84.53,5.19,84.95l.06,1.13-1.07,.36s-6.35,2.84-15.41,25.84c-9.44,23.96-11.01,39.5-11.03,39.65l-.13,1.32-1.33,.02-337.11,5.21Zm-38.2-68.74l20.41,25.52c10.69,13.36,18.26,35.13,19.94,40.22l333.61-5.16c.57-4.27,2.93-18.49,11.07-39.13,7.8-19.79,13.78-25.44,16.17-27.01-3.36-63.96-9.74-159.61-13.86-167.51-13.48,.16-258.34,3.78-267.51,6.6-9.59,2.95-100.55,72.87-108.2,85.4-7.49,12.25-11.24,74.47-11.62,81.07Z"/>
        <path class="cls-6" d="M68.65,182s-38.57-5.19-49.7,0c-11.13,5.19-15.58,12.61-13.35,22.25,2.23,9.64,8.9,35.6,8.9,35.6h11.87s-11.1-40.98-5.19-45.99c9.64-8.16,35.6-6.68,35.6-6.68l11.87-5.19Z"/>
        <polygon class="cls-6" points="955.74 213.89 968.35 199.8 1009.15 198.32 1009.89 210.93 955.74 213.89"/>
      </g>
      <path class="cls-9" d="M345.32,77.34l-6.91,1.37s-4.1,4.22-4.33,11.86l-27.5,10.84s-7.77,5.18-5.47,10.36c2.3,5.18,11.52,1.62,11.52,1.62l22.58-14.81c1.91,6.06,5.38,8.09,5.38,8.09l7.48-.66-2.75-28.66Z"/>
    </g>
  </g>
</svg>